<svg width="748" height="748" viewBox="0 0 748 748" fill="none" xmlns="http://www.w3.org/2000/svg">
<rect width="748" height="748" rx="199" fill="url(#paint0_linear_7124_11647)"/>
<rect width="748" height="748" rx="199" fill="url(#paint1_linear_7124_11647)"/>
<g filter="url(#filter0_dii_7124_11647)">
<rect x="24" y="24" width="350" height="700" rx="175" fill="url(#paint2_linear_7124_11647)" shape-rendering="crispEdges"/>
<rect x="24" y="24" width="350" height="700" rx="175" fill="url(#paint3_linear_7124_11647)" shape-rendering="crispEdges"/>
<g filter="url(#filter1_ddii_7124_11647)">
<rect x="55" y="230" width="288" height="288" rx="144" fill="url(#paint4_linear_7124_11647)" shape-rendering="crispEdges"/>
<rect x="55" y="230" width="288" height="288" rx="144" fill="url(#paint5_linear_7124_11647)" shape-rendering="crispEdges"/>
<g filter="url(#filter2_dii_7124_11647)">
<rect x="79" y="254" width="240" height="240" rx="120" fill="url(#paint6_linear_7124_11647)" shape-rendering="crispEdges"/>
<rect x="79" y="254" width="240" height="240" rx="120" fill="url(#paint7_linear_7124_11647)" shape-rendering="crispEdges"/>
<mask id="path-5-outside-1_7124_11647" maskUnits="userSpaceOnUse" x="202" y="303" width="92" height="72" fill="black">
<rect fill="white" x="202" y="303" width="92" height="72"/>
<path d="M291 374C292.105 374 293.002 373.104 292.977 372C292.676 359.069 289.466 346.348 283.558 334.727C277.635 323.075 269.152 312.824 258.712 304.689C257.86 304.025 256.637 304.185 255.964 305.029L203.587 370.754C202.543 372.064 203.476 374 205.151 374H291Z"/>
</mask>
<g filter="url(#filter3_i_7124_11647)">
<path d="M291 374C292.105 374 293.002 373.104 292.977 372C292.676 359.069 289.466 346.348 283.558 334.727C277.635 323.075 269.152 312.824 258.712 304.689C257.86 304.025 256.637 304.185 255.964 305.029L203.587 370.754C202.543 372.064 203.476 374 205.151 374H291Z" fill="white" fill-opacity="0.01"/>
</g>
<path d="M291 374C292.105 374 293.002 373.104 292.977 372C292.676 359.069 289.466 346.348 283.558 334.727C277.635 323.075 269.152 312.824 258.712 304.689C257.86 304.025 256.637 304.185 255.964 305.029L203.587 370.754C202.543 372.064 203.476 374 205.151 374H291Z" stroke="#D7E9FF" stroke-width="2" mask="url(#path-5-outside-1_7124_11647)"/>
<mask id="path-6-outside-2_7124_11647" maskUnits="userSpaceOnUse" x="200" y="290" width="52" height="81" fill="black">
<rect fill="white" x="200" y="290" width="52" height="81"/>
<path d="M250.278 308.485C250.958 307.582 250.755 306.292 249.814 305.666C236.489 296.8 220.841 291.742 204.67 291.076C203.568 291.03 202.656 291.909 202.633 293.013L201.125 367.808C201.086 369.749 203.556 370.602 204.723 369.051L250.278 308.485Z"/>
</mask>
<g filter="url(#filter4_i_7124_11647)">
<path d="M250.278 308.485C250.958 307.582 250.755 306.292 249.814 305.666C236.489 296.8 220.841 291.742 204.67 291.076C203.568 291.03 202.656 291.909 202.633 293.013L201.125 367.808C201.086 369.749 203.556 370.602 204.723 369.051L250.278 308.485Z" fill="white" fill-opacity="0.01"/>
</g>
<path d="M250.278 308.485C250.958 307.582 250.755 306.292 249.814 305.666C236.489 296.8 220.841 291.742 204.67 291.076C203.568 291.03 202.656 291.909 202.633 293.013L201.125 367.808C201.086 369.749 203.556 370.602 204.723 369.051L250.278 308.485Z" stroke="#D7E9FF" stroke-width="2" mask="url(#path-6-outside-2_7124_11647)"/>
<g filter="url(#filter5_ddii_7124_11647)">
<rect x="129" y="304" width="140" height="140" rx="70" fill="url(#paint8_linear_7124_11647)" shape-rendering="crispEdges"/>
<rect x="129" y="304" width="140" height="140" rx="70" fill="url(#paint9_linear_7124_11647)" shape-rendering="crispEdges"/>
<mask id="mask0_7124_11647" style="mask-type:alpha" maskUnits="userSpaceOnUse" x="184" y="349" width="30" height="50">
<path fill-rule="evenodd" clip-rule="evenodd" d="M185.905 399C185.168 399 184.682 398.228 184.983 397.555C188.134 390.509 189.915 382.497 189.915 374C189.915 365.503 188.134 357.491 184.983 350.445C184.682 349.772 185.168 349 185.905 349H212.693C213.437 349 213.92 349.782 213.588 350.447L212.812 352C209.28 359.359 208.708 364.966 208.708 374C208.708 382.497 210.49 390.509 213.64 397.555C213.941 398.228 213.455 399 212.718 399H185.905ZM197.03 374C197.03 367.757 196.069 361.777 194.31 356.249C194.283 356.166 194.257 356.083 194.23 356H204.393C202.583 361.597 201.593 367.664 201.593 374C201.593 380.336 202.583 386.403 204.393 392H194.23C194.276 391.857 194.322 391.714 194.367 391.57C196.09 386.092 197.03 380.174 197.03 374Z" fill="white"/>
</mask>
<g mask="url(#mask0_7124_11647)">
<g filter="url(#filter6_ii_7124_11647)">
<path fill-rule="evenodd" clip-rule="evenodd" d="M184.312 399C187.879 391.613 189.915 383.084 189.915 374C189.915 364.916 187.879 356.387 184.312 349H214.312C210.744 356.387 208.708 364.916 208.708 374C208.708 383.084 210.744 391.613 214.312 399H184.312ZM197.03 374C197.03 380.336 196.04 386.403 194.23 392H204.393C202.583 386.403 201.593 380.336 201.593 374C201.593 367.664 202.583 361.597 204.393 356H194.23C196.04 361.597 197.03 367.664 197.03 374Z" fill="#2D35B0"/>
</g>
<g filter="url(#filter7_ii_7124_11647)">
<path d="M194.259 356L184.68 349H184.312C187.879 356.387 189.915 364.916 189.915 374C189.915 383.084 187.879 391.613 184.312 399H184.337L194.367 391.57C196.09 386.092 197.03 380.174 197.03 374C197.03 367.664 196.04 361.597 194.23 356H194.259Z" fill="url(#paint10_linear_7124_11647)"/>
</g>
<path fill-rule="evenodd" clip-rule="evenodd" d="M204.301 356.288C204.331 356.192 204.362 356.096 204.393 356H194.23C194.257 356.083 194.284 356.166 194.31 356.249L184.645 349H214.312C214.292 349.041 214.272 349.082 214.253 349.122L204.301 356.288Z" fill="#50D8EE"/>
</g>
<g filter="url(#filter8_ii_7124_11647)">
<path fill-rule="evenodd" clip-rule="evenodd" d="M225.924 392.04C225.942 392.027 225.932 392 225.911 392V392C225.896 392 225.885 391.985 225.889 391.971C227.63 386.382 228.582 380.325 228.582 374C228.582 367.785 227.663 361.83 225.98 356.322C225.95 356.223 225.889 356.137 225.807 356.074L216.654 349.033C216.626 349.011 216.593 349 216.558 349V349C216.443 349 216.367 349.119 216.415 349.223C219.793 356.559 221.717 365.008 221.717 374C221.717 382.982 219.797 391.421 216.427 398.751C216.373 398.867 216.458 399 216.586 399V399C216.624 399 216.661 398.988 216.692 398.965L225.924 392.04Z" fill="url(#paint11_linear_7124_11647)"/>
</g>
<g filter="url(#filter9_ii_7124_11647)">
<path fill-rule="evenodd" clip-rule="evenodd" d="M172.658 392.04C172.64 392.027 172.65 392 172.671 392V392C172.686 392 172.697 391.985 172.693 391.971C170.952 386.382 170 380.325 170 374C170 367.785 170.919 361.83 172.602 356.322C172.632 356.223 172.693 356.137 172.775 356.074L181.928 349.033C181.956 349.011 181.989 349 182.024 349V349C182.139 349 182.215 349.119 182.167 349.223C178.789 356.559 176.865 365.008 176.865 374C176.865 382.982 178.785 391.421 182.155 398.751C182.209 398.867 182.124 399 181.996 399V399C181.958 399 181.921 398.988 181.89 398.965L172.658 392.04Z" fill="#2D35B0"/>
</g>
<g opacity="0.4" filter="url(#filter10_f_7124_11647)">
<mask id="mask1_7124_11647" style="mask-type:alpha" maskUnits="userSpaceOnUse" x="184" y="349" width="30" height="50">
<path fill-rule="evenodd" clip-rule="evenodd" d="M185.905 399C185.168 399 184.682 398.228 184.983 397.555C188.134 390.509 189.915 382.497 189.915 374C189.915 365.503 188.134 357.491 184.983 350.445C184.682 349.772 185.168 349 185.905 349H212.693C213.437 349 213.92 349.782 213.588 350.447L212.812 352C209.28 359.359 208.708 364.966 208.708 374C208.708 382.497 210.49 390.509 213.64 397.555C213.941 398.228 213.455 399 212.718 399H185.905ZM197.03 374C197.03 367.757 196.069 361.777 194.31 356.249C194.283 356.166 194.257 356.083 194.23 356H204.393C202.583 361.597 201.593 367.664 201.593 374C201.593 380.336 202.583 386.403 204.393 392H194.23C194.276 391.857 194.322 391.714 194.367 391.57C196.09 386.092 197.03 380.174 197.03 374Z" fill="white"/>
</mask>
<g mask="url(#mask1_7124_11647)">
<g filter="url(#filter11_ii_7124_11647)">
<path fill-rule="evenodd" clip-rule="evenodd" d="M184.312 399C187.879 391.613 189.915 383.084 189.915 374C189.915 364.916 187.879 356.387 184.312 349H214.312C210.744 356.387 208.708 364.916 208.708 374C208.708 383.084 210.744 391.613 214.312 399H184.312ZM197.03 374C197.03 380.336 196.04 386.403 194.23 392H204.393C202.583 386.403 201.593 380.336 201.593 374C201.593 367.664 202.583 361.597 204.393 356H194.23C196.04 361.597 197.03 367.664 197.03 374Z" fill="#2D35B0"/>
</g>
<g filter="url(#filter12_ii_7124_11647)">
<path d="M194.259 356L184.68 349H184.312C187.879 356.387 189.915 364.916 189.915 374C189.915 383.084 187.879 391.613 184.312 399H184.337L194.367 391.57C196.09 386.092 197.03 380.174 197.03 374C197.03 367.664 196.04 361.597 194.23 356H194.259Z" fill="url(#paint12_linear_7124_11647)"/>
</g>
<path fill-rule="evenodd" clip-rule="evenodd" d="M204.301 356.288C204.331 356.192 204.362 356.096 204.393 356H194.23C194.257 356.083 194.284 356.166 194.31 356.249L184.645 349H214.312C214.292 349.041 214.272 349.082 214.253 349.122L204.301 356.288Z" fill="#50D8EE"/>
</g>
<g filter="url(#filter13_ii_7124_11647)">
<path fill-rule="evenodd" clip-rule="evenodd" d="M225.924 392.04C225.942 392.027 225.932 392 225.911 392V392C225.896 392 225.885 391.985 225.889 391.971C227.63 386.382 228.582 380.325 228.582 374C228.582 367.785 227.663 361.83 225.98 356.322C225.95 356.223 225.889 356.137 225.807 356.074L216.654 349.033C216.626 349.011 216.593 349 216.558 349V349C216.443 349 216.367 349.119 216.415 349.223C219.793 356.559 221.717 365.008 221.717 374C221.717 382.982 219.797 391.421 216.427 398.751C216.373 398.867 216.458 399 216.586 399V399C216.624 399 216.661 398.988 216.692 398.965L225.924 392.04Z" fill="url(#paint13_linear_7124_11647)"/>
</g>
<g filter="url(#filter14_ii_7124_11647)">
<path fill-rule="evenodd" clip-rule="evenodd" d="M172.658 392.04C172.64 392.027 172.65 392 172.671 392V392C172.686 392 172.697 391.985 172.693 391.971C170.952 386.382 170 380.325 170 374C170 367.785 170.919 361.83 172.602 356.322C172.632 356.223 172.693 356.137 172.775 356.074L181.928 349.033C181.956 349.011 181.989 349 182.024 349V349C182.139 349 182.215 349.119 182.167 349.223C178.789 356.559 176.865 365.008 176.865 374C176.865 382.982 178.785 391.421 182.155 398.751C182.209 398.867 182.124 399 181.996 399V399C181.958 399 181.921 398.988 181.89 398.965L172.658 392.04Z" fill="#2D35B0"/>
</g>
</g>
<g style="mix-blend-mode:hard-light" opacity="0.5" filter="url(#filter15_f_7124_11647)">
<mask id="mask2_7124_11647" style="mask-type:alpha" maskUnits="userSpaceOnUse" x="184" y="349" width="30" height="50">
<path fill-rule="evenodd" clip-rule="evenodd" d="M185.905 399C185.168 399 184.682 398.228 184.983 397.555C188.134 390.509 189.915 382.497 189.915 374C189.915 365.503 188.134 357.491 184.983 350.445C184.682 349.772 185.168 349 185.905 349H212.693C213.437 349 213.92 349.782 213.588 350.447L212.812 352C209.28 359.359 208.708 364.966 208.708 374C208.708 382.497 210.49 390.509 213.64 397.555C213.941 398.228 213.455 399 212.718 399H185.905ZM197.03 374C197.03 367.757 196.069 361.777 194.31 356.249C194.283 356.166 194.257 356.083 194.23 356H204.393C202.583 361.597 201.593 367.664 201.593 374C201.593 380.336 202.583 386.403 204.393 392H194.23C194.276 391.857 194.322 391.714 194.367 391.57C196.09 386.092 197.03 380.174 197.03 374Z" fill="white"/>
</mask>
<g mask="url(#mask2_7124_11647)">
<g filter="url(#filter16_ii_7124_11647)">
<path fill-rule="evenodd" clip-rule="evenodd" d="M184.312 399C187.879 391.613 189.915 383.084 189.915 374C189.915 364.916 187.879 356.387 184.312 349H214.312C210.744 356.387 208.708 364.916 208.708 374C208.708 383.084 210.744 391.613 214.312 399H184.312ZM197.03 374C197.03 380.336 196.04 386.403 194.23 392H204.393C202.583 386.403 201.593 380.336 201.593 374C201.593 367.664 202.583 361.597 204.393 356H194.23C196.04 361.597 197.03 367.664 197.03 374Z" fill="#2D35B0"/>
</g>
<g filter="url(#filter17_ii_7124_11647)">
<path d="M194.259 356L184.68 349H184.312C187.879 356.387 189.915 364.916 189.915 374C189.915 383.084 187.879 391.613 184.312 399H184.337L194.367 391.57C196.09 386.092 197.03 380.174 197.03 374C197.03 367.664 196.04 361.597 194.23 356H194.259Z" fill="url(#paint14_linear_7124_11647)"/>
</g>
<path fill-rule="evenodd" clip-rule="evenodd" d="M204.301 356.288C204.331 356.192 204.362 356.096 204.393 356H194.23C194.257 356.083 194.284 356.166 194.31 356.249L184.645 349H214.312C214.292 349.041 214.272 349.082 214.253 349.122L204.301 356.288Z" fill="#50D8EE"/>
</g>
<g filter="url(#filter18_ii_7124_11647)">
<path fill-rule="evenodd" clip-rule="evenodd" d="M225.924 392.04C225.942 392.027 225.932 392 225.911 392V392C225.896 392 225.885 391.985 225.889 391.971C227.63 386.382 228.582 380.325 228.582 374C228.582 367.785 227.663 361.83 225.98 356.322C225.95 356.223 225.889 356.137 225.807 356.074L216.654 349.033C216.626 349.011 216.593 349 216.558 349V349C216.443 349 216.367 349.119 216.415 349.223C219.793 356.559 221.717 365.008 221.717 374C221.717 382.982 219.797 391.421 216.427 398.751C216.373 398.867 216.458 399 216.586 399V399C216.624 399 216.661 398.988 216.692 398.965L225.924 392.04Z" fill="url(#paint15_linear_7124_11647)"/>
</g>
<g filter="url(#filter19_ii_7124_11647)">
<path fill-rule="evenodd" clip-rule="evenodd" d="M172.658 392.04C172.64 392.027 172.65 392 172.671 392V392C172.686 392 172.697 391.985 172.693 391.971C170.952 386.382 170 380.325 170 374C170 367.785 170.919 361.83 172.602 356.322C172.632 356.223 172.693 356.137 172.775 356.074L181.928 349.033C181.956 349.011 181.989 349 182.024 349V349C182.139 349 182.215 349.119 182.167 349.223C178.789 356.559 176.865 365.008 176.865 374C176.865 382.982 178.785 391.421 182.155 398.751C182.209 398.867 182.124 399 181.996 399V399C181.958 399 181.921 398.988 181.89 398.965L172.658 392.04Z" fill="#2D35B0"/>
</g>
</g>
</g>
</g>
</g>
<path d="M155.503 126.18C155.503 127.433 155.043 128.44 154.123 129.2C153.189 129.947 152.056 130.32 150.723 130.32C149.536 130.32 148.489 129.973 147.583 129.28C146.676 128.587 146.049 127.64 145.703 126.44L147.463 125.72C147.583 126.147 147.749 126.533 147.963 126.88C148.176 127.227 148.423 127.527 148.703 127.78C148.996 128.02 149.316 128.213 149.663 128.36C150.009 128.493 150.376 128.56 150.763 128.56C151.603 128.56 152.289 128.347 152.823 127.92C153.356 127.48 153.623 126.9 153.623 126.18C153.623 125.58 153.403 125.067 152.963 124.64C152.549 124.227 151.776 123.827 150.643 123.44C149.496 123.027 148.783 122.747 148.503 122.6C146.983 121.827 146.223 120.687 146.223 119.18C146.223 118.127 146.643 117.227 147.483 116.48C148.336 115.733 149.383 115.36 150.623 115.36C151.716 115.36 152.663 115.64 153.463 116.2C154.263 116.747 154.796 117.433 155.063 118.26L153.343 118.98C153.183 118.447 152.863 118.007 152.383 117.66C151.916 117.3 151.343 117.12 150.663 117.12C149.943 117.12 149.336 117.32 148.843 117.72C148.349 118.093 148.103 118.58 148.103 119.18C148.103 119.673 148.296 120.1 148.683 120.46C149.109 120.82 150.036 121.247 151.463 121.74C152.916 122.233 153.949 122.84 154.563 123.56C155.189 124.267 155.503 125.14 155.503 126.18Z" fill="#4E7DB5"/>
<path d="M160.77 130.16C159.97 130.16 159.303 129.913 158.77 129.42C158.25 128.927 157.983 128.24 157.97 127.36V121.88H156.25V120.2H157.97V117.2H159.81V120.2H162.21V121.88H159.81V126.76C159.81 127.413 159.936 127.86 160.19 128.1C160.443 128.327 160.73 128.44 161.05 128.44C161.196 128.44 161.336 128.427 161.47 128.4C161.616 128.36 161.75 128.313 161.87 128.26L162.45 129.9C161.97 130.073 161.41 130.16 160.77 130.16Z" fill="#4E7DB5"/>
<path d="M165.105 127C165.105 127.48 165.305 127.88 165.705 128.2C166.118 128.52 166.598 128.68 167.145 128.68C167.918 128.68 168.605 128.393 169.205 127.82C169.818 127.247 170.125 126.573 170.125 125.8C169.551 125.347 168.751 125.12 167.725 125.12C166.978 125.12 166.351 125.3 165.845 125.66C165.351 126.02 165.105 126.467 165.105 127ZM167.485 119.88C168.845 119.88 169.918 120.247 170.705 120.98C171.491 121.7 171.885 122.693 171.885 123.96V130H170.125V128.64H170.045C169.285 129.76 168.271 130.32 167.005 130.32C165.925 130.32 165.018 130 164.285 129.36C163.565 128.72 163.205 127.92 163.205 126.96C163.205 125.947 163.585 125.14 164.345 124.54C165.118 123.94 166.145 123.64 167.425 123.64C168.518 123.64 169.418 123.84 170.125 124.24V123.82C170.125 123.18 169.871 122.64 169.365 122.2C168.858 121.747 168.265 121.52 167.585 121.52C166.558 121.52 165.745 121.953 165.145 122.82L163.525 121.8C164.418 120.52 165.738 119.88 167.485 119.88Z" fill="#4E7DB5"/>
<path d="M182.58 130H180.36L177.3 125.38L175.8 126.86V130H173.96V115.68H175.8V124.5L180.04 120.2H182.4V120.28L178.58 124.08L182.58 129.92V130Z" fill="#4E7DB5"/>
<path d="M187.735 130.32C186.295 130.32 185.108 129.827 184.175 128.84C183.241 127.853 182.775 126.607 182.775 125.1C182.775 123.607 183.228 122.367 184.135 121.38C185.041 120.38 186.201 119.88 187.615 119.88C189.068 119.88 190.221 120.353 191.075 121.3C191.941 122.233 192.375 123.547 192.375 125.24L192.355 125.44H184.655C184.681 126.4 185.001 127.173 185.615 127.76C186.228 128.347 186.961 128.64 187.815 128.64C188.988 128.64 189.908 128.053 190.575 126.88L192.215 127.68C191.775 128.507 191.161 129.153 190.375 129.62C189.601 130.087 188.721 130.32 187.735 130.32ZM184.795 123.92H190.415C190.361 123.24 190.081 122.68 189.575 122.24C189.081 121.787 188.415 121.56 187.575 121.56C186.881 121.56 186.281 121.773 185.775 122.2C185.281 122.627 184.955 123.2 184.795 123.92Z" fill="#4E7DB5"/>
<path d="M203.252 128.64C204.132 128.64 204.872 128.307 205.472 127.64C206.072 126.987 206.372 126.14 206.372 125.1C206.372 124.073 206.072 123.227 205.472 122.56C204.872 121.893 204.132 121.56 203.252 121.56C202.359 121.56 201.612 121.893 201.012 122.56C200.425 123.227 200.132 124.073 200.132 125.1C200.132 126.14 200.425 126.993 201.012 127.66C201.612 128.313 202.359 128.64 203.252 128.64ZM203.552 130.32C202.832 130.32 202.172 130.167 201.572 129.86C200.985 129.553 200.532 129.147 200.212 128.64H200.132L200.212 130V134.32H198.372V120.2H200.132V121.56H200.212C200.532 121.053 200.985 120.647 201.572 120.34C202.172 120.033 202.832 119.88 203.552 119.88C204.845 119.88 205.939 120.387 206.832 121.4C207.752 122.427 208.212 123.66 208.212 125.1C208.212 126.553 207.752 127.787 206.832 128.8C205.939 129.813 204.845 130.32 203.552 130.32Z" fill="#4E7DB5"/>
<path d="M214.297 130.32C212.857 130.32 211.671 129.827 210.737 128.84C209.804 127.853 209.337 126.607 209.337 125.1C209.337 123.607 209.791 122.367 210.697 121.38C211.604 120.38 212.764 119.88 214.177 119.88C215.631 119.88 216.784 120.353 217.637 121.3C218.504 122.233 218.937 123.547 218.937 125.24L218.917 125.44H211.217C211.244 126.4 211.564 127.173 212.177 127.76C212.791 128.347 213.524 128.64 214.377 128.64C215.551 128.64 216.471 128.053 217.137 126.88L218.777 127.68C218.337 128.507 217.724 129.153 216.937 129.62C216.164 130.087 215.284 130.32 214.297 130.32ZM211.357 123.92H216.977C216.924 123.24 216.644 122.68 216.137 122.24C215.644 121.787 214.977 121.56 214.137 121.56C213.444 121.56 212.844 121.773 212.337 122.2C211.844 122.627 211.517 123.2 211.357 123.92Z" fill="#4E7DB5"/>
<path d="M222.46 130H220.62V120.2H222.38V121.8H222.46C222.647 121.28 223.027 120.84 223.6 120.48C224.187 120.107 224.76 119.92 225.32 119.92C225.853 119.92 226.307 120 226.68 120.16L226.12 121.94C225.893 121.847 225.533 121.8 225.04 121.8C224.347 121.8 223.74 122.08 223.22 122.64C222.713 123.2 222.46 123.853 222.46 124.6V130Z" fill="#4E7DB5"/>
<path d="M230.266 116.82C230.266 117.18 230.139 117.487 229.886 117.74C229.632 117.993 229.326 118.12 228.966 118.12C228.606 118.12 228.299 117.993 228.046 117.74C227.792 117.487 227.666 117.18 227.666 116.82C227.666 116.46 227.792 116.153 228.046 115.9C228.299 115.647 228.606 115.52 228.966 115.52C229.326 115.52 229.632 115.647 229.886 115.9C230.139 116.153 230.266 116.46 230.266 116.82ZM229.886 120.2V130H228.046V120.2H229.886Z" fill="#4E7DB5"/>
<path d="M231.622 125.1C231.622 123.593 232.096 122.347 233.042 121.36C234.002 120.373 235.209 119.88 236.662 119.88C238.116 119.88 239.316 120.373 240.262 121.36C241.222 122.347 241.702 123.593 241.702 125.1C241.702 126.62 241.222 127.867 240.262 128.84C239.316 129.827 238.116 130.32 236.662 130.32C235.209 130.32 234.002 129.827 233.042 128.84C232.096 127.853 231.622 126.607 231.622 125.1ZM233.462 125.1C233.462 126.153 233.769 127.007 234.382 127.66C234.996 128.313 235.756 128.64 236.662 128.64C237.569 128.64 238.329 128.313 238.942 127.66C239.556 127.007 239.862 126.153 239.862 125.1C239.862 124.06 239.556 123.213 238.942 122.56C238.316 121.893 237.556 121.56 236.662 121.56C235.769 121.56 235.009 121.893 234.382 122.56C233.769 123.213 233.462 124.06 233.462 125.1Z" fill="#4E7DB5"/>
<path d="M247.774 128.64C248.681 128.64 249.421 128.313 249.994 127.66C250.594 127.007 250.894 126.153 250.894 125.1C250.894 124.073 250.594 123.227 249.994 122.56C249.407 121.893 248.667 121.56 247.774 121.56C246.894 121.56 246.154 121.893 245.554 122.56C244.954 123.227 244.654 124.073 244.654 125.1C244.654 126.14 244.954 126.987 245.554 127.64C246.154 128.307 246.894 128.64 247.774 128.64ZM247.474 130.32C246.194 130.32 245.094 129.813 244.174 128.8C243.267 127.773 242.814 126.54 242.814 125.1C242.814 123.66 243.267 122.427 244.174 121.4C245.094 120.387 246.194 119.88 247.474 119.88C248.194 119.88 248.847 120.033 249.434 120.34C250.034 120.647 250.494 121.053 250.814 121.56H250.894L250.814 120.2V115.68H252.654V130H250.894V128.64H250.814C250.494 129.147 250.034 129.553 249.434 129.86C248.847 130.167 248.194 130.32 247.474 130.32Z" fill="#4E7DB5"/>
<path d="M127.428 575H125.588V560.68H127.828L134.788 571.82H134.868L134.788 569.06V560.68H136.628V575H134.708L127.428 563.32H127.348L127.428 566.08V575Z" fill="#4E7DB5"/>
<path d="M138.634 570.1C138.634 568.593 139.107 567.347 140.054 566.36C141.014 565.373 142.221 564.88 143.674 564.88C145.127 564.88 146.327 565.373 147.274 566.36C148.234 567.347 148.714 568.593 148.714 570.1C148.714 571.62 148.234 572.867 147.274 573.84C146.327 574.827 145.127 575.32 143.674 575.32C142.221 575.32 141.014 574.827 140.054 573.84C139.107 572.853 138.634 571.607 138.634 570.1ZM140.474 570.1C140.474 571.153 140.781 572.007 141.394 572.66C142.007 573.313 142.767 573.64 143.674 573.64C144.581 573.64 145.341 573.313 145.954 572.66C146.567 572.007 146.874 571.153 146.874 570.1C146.874 569.06 146.567 568.213 145.954 567.56C145.327 566.893 144.567 566.56 143.674 566.56C142.781 566.56 142.021 566.893 141.394 567.56C140.781 568.213 140.474 569.06 140.474 570.1Z" fill="#4E7DB5"/>
<path d="M155.1 575V560.68H159.48C161.667 560.68 163.42 561.34 164.74 562.66C166.073 563.98 166.74 565.707 166.74 567.84C166.74 569.987 166.073 571.72 164.74 573.04C163.42 574.347 161.667 575 159.48 575H155.1ZM156.94 562.44V573.24H159.48C161.147 573.24 162.46 572.767 163.42 571.82C164.38 570.86 164.86 569.533 164.86 567.84C164.86 566.16 164.38 564.84 163.42 563.88C162.46 562.92 161.147 562.44 159.48 562.44H156.94Z" fill="#4E7DB5"/>
<path d="M170.988 561.82C170.988 562.18 170.862 562.487 170.608 562.74C170.355 562.993 170.048 563.12 169.688 563.12C169.328 563.12 169.022 562.993 168.768 562.74C168.515 562.487 168.388 562.18 168.388 561.82C168.388 561.46 168.515 561.153 168.768 560.9C169.022 560.647 169.328 560.52 169.688 560.52C170.048 560.52 170.355 560.647 170.608 560.9C170.862 561.153 170.988 561.46 170.988 561.82ZM170.608 565.2V575H168.768V565.2H170.608Z" fill="#4E7DB5"/>
<path d="M174.843 560.68V575H173.003V560.68H174.843Z" fill="#4E7DB5"/>
<path d="M178.925 560.68V575H177.085V560.68H178.925Z" fill="#4E7DB5"/>
<path d="M189.767 575H188.007V573.64H187.927C187.647 574.12 187.213 574.52 186.627 574.84C186.053 575.16 185.453 575.32 184.827 575.32C183.627 575.32 182.7 574.98 182.047 574.3C181.407 573.607 181.087 572.627 181.087 571.36V565.2H182.927V571.24C182.967 572.84 183.773 573.64 185.347 573.64C186.08 573.64 186.693 573.347 187.187 572.76C187.68 572.16 187.927 571.447 187.927 570.62V565.2H189.767V575Z" fill="#4E7DB5"/>
<path d="M195.984 575.16C195.184 575.16 194.518 574.913 193.984 574.42C193.464 573.927 193.198 573.24 193.184 572.36V566.88H191.464V565.2H193.184V562.2H195.024V565.2H197.424V566.88H195.024V571.76C195.024 572.413 195.151 572.86 195.404 573.1C195.658 573.327 195.944 573.44 196.264 573.44C196.411 573.44 196.551 573.427 196.684 573.4C196.831 573.36 196.964 573.313 197.084 573.26L197.664 574.9C197.184 575.073 196.624 575.16 195.984 575.16Z" fill="#4E7DB5"/>
<path d="M201.652 561.82C201.652 562.18 201.526 562.487 201.272 562.74C201.019 562.993 200.712 563.12 200.352 563.12C199.992 563.12 199.686 562.993 199.432 562.74C199.179 562.487 199.052 562.18 199.052 561.82C199.052 561.46 199.179 561.153 199.432 560.9C199.686 560.647 199.992 560.52 200.352 560.52C200.712 560.52 201.019 560.647 201.272 560.9C201.526 561.153 201.652 561.46 201.652 561.82ZM201.272 565.2V575H199.432V565.2H201.272Z" fill="#4E7DB5"/>
<path d="M203.009 570.1C203.009 568.593 203.482 567.347 204.429 566.36C205.389 565.373 206.596 564.88 208.049 564.88C209.502 564.88 210.702 565.373 211.649 566.36C212.609 567.347 213.089 568.593 213.089 570.1C213.089 571.62 212.609 572.867 211.649 573.84C210.702 574.827 209.502 575.32 208.049 575.32C206.596 575.32 205.389 574.827 204.429 573.84C203.482 572.853 203.009 571.607 203.009 570.1ZM204.849 570.1C204.849 571.153 205.156 572.007 205.769 572.66C206.382 573.313 207.142 573.64 208.049 573.64C208.956 573.64 209.716 573.313 210.329 572.66C210.942 572.007 211.249 571.153 211.249 570.1C211.249 569.06 210.942 568.213 210.329 567.56C209.702 566.893 208.942 566.56 208.049 566.56C207.156 566.56 206.396 566.893 205.769 567.56C205.156 568.213 204.849 569.06 204.849 570.1Z" fill="#4E7DB5"/>
<path d="M214.565 565.2H216.325V566.56H216.405C216.685 566.08 217.112 565.68 217.685 565.36C218.272 565.04 218.879 564.88 219.505 564.88C220.705 564.88 221.625 565.227 222.265 565.92C222.919 566.6 223.245 567.573 223.245 568.84V575H221.405V568.96C221.365 567.36 220.559 566.56 218.985 566.56C218.252 566.56 217.639 566.86 217.145 567.46C216.652 568.047 216.405 568.753 216.405 569.58V575H214.565V565.2Z" fill="#4E7DB5"/>
<path d="M234.56 575H232.72L228.76 565.2H230.76L233.64 572.8H233.68L236.6 565.2H238.56L234.56 575Z" fill="#4E7DB5"/>
<path d="M245.281 562.94L242.941 569.4H247.701L245.361 562.94H245.281ZM240.921 575H238.881L244.281 560.68H246.361L251.761 575H249.721L248.341 571.12H242.321L240.921 575Z" fill="#4E7DB5"/>
<path d="M255.28 569.2V575H253.44V560.68H258.32C259.56 560.68 260.613 561.093 261.48 561.92C262.36 562.747 262.8 563.753 262.8 564.94C262.8 566.153 262.36 567.167 261.48 567.98C260.627 568.793 259.573 569.2 258.32 569.2H255.28ZM255.28 562.44V567.44H258.36C259.093 567.44 259.7 567.193 260.18 566.7C260.673 566.207 260.92 565.62 260.92 564.94C260.92 564.273 260.673 563.693 260.18 563.2C259.7 562.693 259.093 562.44 258.36 562.44H255.28Z" fill="#4E7DB5"/>
<path d="M266.569 562.44V567.48H269.529C270.276 567.48 270.909 567.24 271.429 566.76C271.949 566.267 272.209 565.66 272.209 564.94C272.209 564.273 271.962 563.693 271.469 563.2C270.989 562.693 270.382 562.44 269.649 562.44H266.569ZM266.569 575H264.729V560.68H269.609C270.849 560.68 271.902 561.093 272.769 561.92C273.649 562.733 274.089 563.74 274.089 564.94C274.089 565.927 273.762 566.807 273.109 567.58C272.469 568.34 271.656 568.827 270.669 569.04L270.629 569.1L274.649 574.92V575H272.469L268.609 569.2H266.569V575Z" fill="#4E7DB5"/>
</g>
<g filter="url(#filter20_ddii_7124_11647)">
<path d="M398 48C398 34.7451 408.745 24 422 24H522.765C633.904 24 724 114.096 724 225.235V225.235C724 234.126 716.792 241.333 707.901 241.333H422C408.745 241.333 398 230.588 398 217.333V48Z" fill="url(#paint16_linear_7124_11647)"/>
<path d="M398 48C398 34.7451 408.745 24 422 24H522.765C633.904 24 724 114.096 724 225.235V225.235C724 234.126 716.792 241.333 707.901 241.333H422C408.745 241.333 398 230.588 398 217.333V48Z" fill="url(#paint17_linear_7124_11647)"/>
<path d="M440.28 69.18C440.28 70.4333 439.82 71.44 438.9 72.2C437.967 72.9467 436.833 73.32 435.5 73.32C434.313 73.32 433.267 72.9733 432.36 72.28C431.453 71.5867 430.827 70.64 430.48 69.44L432.24 68.72C432.36 69.1467 432.527 69.5333 432.74 69.88C432.953 70.2267 433.2 70.5267 433.48 70.78C433.773 71.02 434.093 71.2133 434.44 71.36C434.787 71.4933 435.153 71.56 435.54 71.56C436.38 71.56 437.067 71.3467 437.6 70.92C438.133 70.48 438.4 69.9 438.4 69.18C438.4 68.58 438.18 68.0667 437.74 67.64C437.327 67.2267 436.553 66.8267 435.42 66.44C434.273 66.0267 433.56 65.7467 433.28 65.6C431.76 64.8267 431 63.6867 431 62.18C431 61.1267 431.42 60.2267 432.26 59.48C433.113 58.7333 434.16 58.36 435.4 58.36C436.493 58.36 437.44 58.64 438.24 59.2C439.04 59.7467 439.573 60.4333 439.84 61.26L438.12 61.98C437.96 61.4467 437.64 61.0067 437.16 60.66C436.693 60.3 436.12 60.12 435.44 60.12C434.72 60.12 434.113 60.32 433.62 60.72C433.127 61.0933 432.88 61.58 432.88 62.18C432.88 62.6733 433.073 63.1 433.46 63.46C433.887 63.82 434.813 64.2467 436.24 64.74C437.693 65.2333 438.727 65.84 439.34 66.56C439.967 67.2667 440.28 68.14 440.28 69.18Z" fill="#4E7DB5"/>
<path d="M445.547 73.16C444.747 73.16 444.08 72.9133 443.547 72.42C443.027 71.9267 442.76 71.24 442.747 70.36V64.88H441.027V63.2H442.747V60.2H444.587V63.2H446.987V64.88H444.587V69.76C444.587 70.4133 444.714 70.86 444.967 71.1C445.22 71.3267 445.507 71.44 445.827 71.44C445.974 71.44 446.114 71.4267 446.247 71.4C446.394 71.36 446.527 71.3133 446.647 71.26L447.227 72.9C446.747 73.0733 446.187 73.16 445.547 73.16Z" fill="#4E7DB5"/>
<path d="M449.882 70C449.882 70.48 450.082 70.88 450.482 71.2C450.895 71.52 451.375 71.68 451.922 71.68C452.695 71.68 453.382 71.3933 453.982 70.82C454.595 70.2467 454.902 69.5733 454.902 68.8C454.329 68.3467 453.529 68.12 452.502 68.12C451.755 68.12 451.129 68.3 450.622 68.66C450.129 69.02 449.882 69.4667 449.882 70ZM452.262 62.88C453.622 62.88 454.695 63.2467 455.482 63.98C456.269 64.7 456.662 65.6933 456.662 66.96V73H454.902V71.64H454.822C454.062 72.76 453.049 73.32 451.782 73.32C450.702 73.32 449.795 73 449.062 72.36C448.342 71.72 447.982 70.92 447.982 69.96C447.982 68.9467 448.362 68.14 449.122 67.54C449.895 66.94 450.922 66.64 452.202 66.64C453.295 66.64 454.195 66.84 454.902 67.24V66.82C454.902 66.18 454.649 65.64 454.142 65.2C453.635 64.7467 453.042 64.52 452.362 64.52C451.335 64.52 450.522 64.9533 449.922 65.82L448.302 64.8C449.195 63.52 450.515 62.88 452.262 62.88Z" fill="#4E7DB5"/>
<path d="M467.357 73H465.137L462.077 68.38L460.577 69.86V73H458.737V58.68H460.577V67.5L464.817 63.2H467.177V63.28L463.357 67.08L467.357 72.92V73Z" fill="#4E7DB5"/>
<path d="M472.512 73.32C471.072 73.32 469.886 72.8267 468.952 71.84C468.019 70.8533 467.552 69.6067 467.552 68.1C467.552 66.6067 468.005 65.3667 468.912 64.38C469.819 63.38 470.979 62.88 472.392 62.88C473.846 62.88 474.999 63.3533 475.852 64.3C476.719 65.2333 477.152 66.5467 477.152 68.24L477.132 68.44H469.432C469.459 69.4 469.779 70.1733 470.392 70.76C471.005 71.3467 471.739 71.64 472.592 71.64C473.766 71.64 474.686 71.0533 475.352 69.88L476.992 70.68C476.552 71.5067 475.939 72.1533 475.152 72.62C474.379 73.0867 473.499 73.32 472.512 73.32ZM469.572 66.92H475.192C475.139 66.24 474.859 65.68 474.352 65.24C473.859 64.7867 473.192 64.56 472.352 64.56C471.659 64.56 471.059 64.7733 470.552 65.2C470.059 65.6267 469.732 66.2 469.572 66.92Z" fill="#4E7DB5"/>
<path d="M487.629 71.64C488.536 71.64 489.276 71.3133 489.849 70.66C490.449 70.0067 490.749 69.1533 490.749 68.1C490.749 67.0733 490.449 66.2267 489.849 65.56C489.263 64.8933 488.523 64.56 487.629 64.56C486.749 64.56 486.009 64.8933 485.409 65.56C484.809 66.2267 484.509 67.0733 484.509 68.1C484.509 69.14 484.809 69.9867 485.409 70.64C486.009 71.3067 486.749 71.64 487.629 71.64ZM487.329 73.32C486.049 73.32 484.949 72.8133 484.029 71.8C483.123 70.7733 482.669 69.54 482.669 68.1C482.669 66.66 483.123 65.4267 484.029 64.4C484.949 63.3867 486.049 62.88 487.329 62.88C488.049 62.88 488.703 63.0333 489.289 63.34C489.889 63.6467 490.349 64.0533 490.669 64.56H490.749L490.669 63.2V58.68H492.509V73H490.749V71.64H490.669C490.349 72.1467 489.889 72.5533 489.289 72.86C488.703 73.1667 488.049 73.32 487.329 73.32Z" fill="#4E7DB5"/>
<path d="M495.995 70C495.995 70.48 496.195 70.88 496.595 71.2C497.008 71.52 497.488 71.68 498.035 71.68C498.808 71.68 499.495 71.3933 500.095 70.82C500.708 70.2467 501.015 69.5733 501.015 68.8C500.442 68.3467 499.642 68.12 498.615 68.12C497.868 68.12 497.242 68.3 496.735 68.66C496.242 69.02 495.995 69.4667 495.995 70ZM498.375 62.88C499.735 62.88 500.808 63.2467 501.595 63.98C502.382 64.7 502.775 65.6933 502.775 66.96V73H501.015V71.64H500.935C500.175 72.76 499.162 73.32 497.895 73.32C496.815 73.32 495.908 73 495.175 72.36C494.455 71.72 494.095 70.92 494.095 69.96C494.095 68.9467 494.475 68.14 495.235 67.54C496.008 66.94 497.035 66.64 498.315 66.64C499.408 66.64 500.308 66.84 501.015 67.24V66.82C501.015 66.18 500.762 65.64 500.255 65.2C499.748 64.7467 499.155 64.52 498.475 64.52C497.448 64.52 496.635 64.9533 496.035 65.82L494.415 64.8C495.308 63.52 496.628 62.88 498.375 62.88Z" fill="#4E7DB5"/>
<path d="M508.535 73.16C507.735 73.16 507.068 72.9133 506.535 72.42C506.015 71.9267 505.748 71.24 505.735 70.36V64.88H504.015V63.2H505.735V60.2H507.575V63.2H509.975V64.88H507.575V69.76C507.575 70.4133 507.702 70.86 507.955 71.1C508.208 71.3267 508.495 71.44 508.815 71.44C508.962 71.44 509.102 71.4267 509.235 71.4C509.382 71.36 509.515 71.3133 509.635 71.26L510.215 72.9C509.735 73.0733 509.175 73.16 508.535 73.16Z" fill="#4E7DB5"/>
<path d="M516.028 73.32C514.588 73.32 513.401 72.8267 512.468 71.84C511.534 70.8533 511.068 69.6067 511.068 68.1C511.068 66.6067 511.521 65.3667 512.428 64.38C513.334 63.38 514.494 62.88 515.908 62.88C517.361 62.88 518.514 63.3533 519.368 64.3C520.234 65.2333 520.668 66.5467 520.668 68.24L520.648 68.44H512.948C512.974 69.4 513.294 70.1733 513.908 70.76C514.521 71.3467 515.254 71.64 516.108 71.64C517.281 71.64 518.201 71.0533 518.868 69.88L520.508 70.68C520.068 71.5067 519.454 72.1533 518.668 72.62C517.894 73.0867 517.014 73.32 516.028 73.32ZM513.088 66.92H518.708C518.654 66.24 518.374 65.68 517.868 65.24C517.374 64.7867 516.708 64.56 515.868 64.56C515.174 64.56 514.574 64.7733 514.068 65.2C513.574 65.6267 513.248 66.2 513.088 66.92Z" fill="#4E7DB5"/>
<path d="M524.91 64.44C524.91 64.8133 524.777 65.1333 524.51 65.4C524.257 65.6667 523.937 65.8 523.55 65.8C523.177 65.8 522.857 65.6667 522.59 65.4C522.324 65.1333 522.19 64.8133 522.19 64.44C522.19 64.0533 522.324 63.7333 522.59 63.48C522.857 63.2133 523.177 63.08 523.55 63.08C523.937 63.08 524.257 63.2133 524.51 63.48C524.777 63.7333 524.91 64.0533 524.91 64.44ZM524.91 71.76C524.91 72.1333 524.777 72.4533 524.51 72.72C524.257 72.9867 523.937 73.12 523.55 73.12C523.177 73.12 522.857 72.9867 522.59 72.72C522.324 72.4533 522.19 72.1333 522.19 71.76C522.19 71.3733 522.324 71.0533 522.59 70.8C522.857 70.5333 523.177 70.4 523.55 70.4C523.937 70.4 524.257 70.5333 524.51 70.8C524.777 71.0533 524.91 71.3733 524.91 71.76Z" fill="#4E7DB5"/>
<path d="M433.28 152.44V157.48H436.24C436.987 157.48 437.62 157.24 438.14 156.76C438.66 156.267 438.92 155.66 438.92 154.94C438.92 154.273 438.673 153.693 438.18 153.2C437.7 152.693 437.093 152.44 436.36 152.44H433.28ZM433.28 165H431.44V150.68H436.32C437.56 150.68 438.613 151.093 439.48 151.92C440.36 152.733 440.8 153.74 440.8 154.94C440.8 155.927 440.473 156.807 439.82 157.58C439.18 158.34 438.367 158.827 437.38 159.04L437.34 159.1L441.36 164.92V165H439.18L435.32 159.2H433.28V165Z" fill="#4E7DB5"/>
<path d="M446.887 165.32C445.447 165.32 444.26 164.827 443.327 163.84C442.394 162.853 441.927 161.607 441.927 160.1C441.927 158.607 442.38 157.367 443.287 156.38C444.194 155.38 445.354 154.88 446.767 154.88C448.22 154.88 449.374 155.353 450.227 156.3C451.094 157.233 451.527 158.547 451.527 160.24L451.507 160.44H443.807C443.834 161.4 444.154 162.173 444.767 162.76C445.38 163.347 446.114 163.64 446.967 163.64C448.14 163.64 449.06 163.053 449.727 161.88L451.367 162.68C450.927 163.507 450.314 164.153 449.527 164.62C448.754 165.087 447.874 165.32 446.887 165.32ZM443.947 158.92H449.567C449.514 158.24 449.234 157.68 448.727 157.24C448.234 156.787 447.567 156.56 446.727 156.56C446.034 156.56 445.434 156.773 444.927 157.2C444.434 157.627 444.107 158.2 443.947 158.92Z" fill="#4E7DB5"/>
<path d="M457.707 163.64C458.614 163.64 459.354 163.313 459.927 162.66C460.527 162.007 460.827 161.153 460.827 160.1C460.827 159.073 460.527 158.227 459.927 157.56C459.341 156.893 458.601 156.56 457.707 156.56C456.827 156.56 456.087 156.893 455.487 157.56C454.887 158.227 454.587 159.073 454.587 160.1C454.587 161.14 454.887 161.987 455.487 162.64C456.087 163.307 456.827 163.64 457.707 163.64ZM457.407 165.32C456.127 165.32 455.027 164.813 454.107 163.8C453.201 162.773 452.747 161.54 452.747 160.1C452.747 158.66 453.201 157.427 454.107 156.4C455.027 155.387 456.127 154.88 457.407 154.88C458.127 154.88 458.781 155.033 459.367 155.34C459.967 155.647 460.427 156.053 460.747 156.56H460.827L460.747 155.2V150.68H462.587V165H460.827V163.64H460.747C460.427 164.147 459.967 164.553 459.367 164.86C458.781 165.167 458.127 165.32 457.407 165.32Z" fill="#4E7DB5"/>
<path d="M469.133 165.32C467.693 165.32 466.507 164.827 465.573 163.84C464.64 162.853 464.173 161.607 464.173 160.1C464.173 158.607 464.627 157.367 465.533 156.38C466.44 155.38 467.6 154.88 469.013 154.88C470.467 154.88 471.62 155.353 472.473 156.3C473.34 157.233 473.773 158.547 473.773 160.24L473.753 160.44H466.053C466.08 161.4 466.4 162.173 467.013 162.76C467.627 163.347 468.36 163.64 469.213 163.64C470.387 163.64 471.307 163.053 471.973 161.88L473.613 162.68C473.173 163.507 472.56 164.153 471.773 164.62C471 165.087 470.12 165.32 469.133 165.32ZM466.193 158.92H471.813C471.76 158.24 471.48 157.68 470.973 157.24C470.48 156.787 469.813 156.56 468.973 156.56C468.28 156.56 467.68 156.773 467.173 157.2C466.68 157.627 466.353 158.2 466.193 158.92Z" fill="#4E7DB5"/>
<path d="M479.954 165.32C478.514 165.32 477.327 164.827 476.394 163.84C475.46 162.853 474.994 161.607 474.994 160.1C474.994 158.607 475.447 157.367 476.354 156.38C477.26 155.38 478.42 154.88 479.834 154.88C481.287 154.88 482.44 155.353 483.294 156.3C484.16 157.233 484.594 158.547 484.594 160.24L484.574 160.44H476.874C476.9 161.4 477.22 162.173 477.834 162.76C478.447 163.347 479.18 163.64 480.034 163.64C481.207 163.64 482.127 163.053 482.794 161.88L484.434 162.68C483.994 163.507 483.38 164.153 482.594 164.62C481.82 165.087 480.94 165.32 479.954 165.32ZM477.014 158.92H482.634C482.58 158.24 482.3 157.68 481.794 157.24C481.3 156.787 480.634 156.56 479.794 156.56C479.1 156.56 478.5 156.773 477.994 157.2C477.5 157.627 477.174 158.2 477.014 158.92Z" fill="#4E7DB5"/>
<path d="M488.116 165H486.276V155.2H488.036V156.56H488.116C488.396 156.08 488.823 155.68 489.396 155.36C489.983 155.04 490.563 154.88 491.136 154.88C491.856 154.88 492.49 155.047 493.036 155.38C493.583 155.713 493.983 156.173 494.236 156.76C495.05 155.507 496.176 154.88 497.616 154.88C498.75 154.88 499.623 155.227 500.236 155.92C500.85 156.613 501.156 157.6 501.156 158.88V165H499.316V159.16C499.316 158.24 499.15 157.58 498.816 157.18C498.483 156.767 497.923 156.56 497.136 156.56C496.43 156.56 495.836 156.86 495.356 157.46C494.876 158.06 494.636 158.767 494.636 159.58V165H492.796V159.16C492.796 158.24 492.63 157.58 492.296 157.18C491.963 156.767 491.403 156.56 490.616 156.56C489.91 156.56 489.316 156.86 488.836 157.46C488.356 158.06 488.116 158.767 488.116 159.58V165Z" fill="#4E7DB5"/>
<path d="M512.102 163.64C513.009 163.64 513.749 163.313 514.322 162.66C514.922 162.007 515.222 161.153 515.222 160.1C515.222 159.073 514.922 158.227 514.322 157.56C513.735 156.893 512.995 156.56 512.102 156.56C511.222 156.56 510.482 156.893 509.882 157.56C509.282 158.227 508.982 159.073 508.982 160.1C508.982 161.14 509.282 161.987 509.882 162.64C510.482 163.307 511.222 163.64 512.102 163.64ZM511.802 165.32C510.522 165.32 509.422 164.813 508.502 163.8C507.595 162.773 507.142 161.54 507.142 160.1C507.142 158.66 507.595 157.427 508.502 156.4C509.422 155.387 510.522 154.88 511.802 154.88C512.522 154.88 513.175 155.033 513.762 155.34C514.362 155.647 514.822 156.053 515.142 156.56H515.222L515.142 155.2V150.68H516.982V165H515.222V163.64H515.142C514.822 164.147 514.362 164.553 513.762 164.86C513.175 165.167 512.522 165.32 511.802 165.32Z" fill="#4E7DB5"/>
<path d="M520.468 162C520.468 162.48 520.668 162.88 521.068 163.2C521.481 163.52 521.961 163.68 522.508 163.68C523.281 163.68 523.968 163.393 524.568 162.82C525.181 162.247 525.488 161.573 525.488 160.8C524.914 160.347 524.114 160.12 523.088 160.12C522.341 160.12 521.714 160.3 521.208 160.66C520.714 161.02 520.468 161.467 520.468 162ZM522.848 154.88C524.208 154.88 525.281 155.247 526.068 155.98C526.854 156.7 527.248 157.693 527.248 158.96V165H525.488V163.64H525.408C524.648 164.76 523.634 165.32 522.368 165.32C521.288 165.32 520.381 165 519.648 164.36C518.928 163.72 518.568 162.92 518.568 161.96C518.568 160.947 518.948 160.14 519.708 159.54C520.481 158.94 521.508 158.64 522.788 158.64C523.881 158.64 524.781 158.84 525.488 159.24V158.82C525.488 158.18 525.234 157.64 524.728 157.2C524.221 156.747 523.628 156.52 522.948 156.52C521.921 156.52 521.108 156.953 520.508 157.82L518.888 156.8C519.781 155.52 521.101 154.88 522.848 154.88Z" fill="#4E7DB5"/>
<path d="M533.008 165.16C532.208 165.16 531.541 164.913 531.008 164.42C530.488 163.927 530.221 163.24 530.208 162.36V156.88H528.488V155.2H530.208V152.2H532.048V155.2H534.448V156.88H532.048V161.76C532.048 162.413 532.174 162.86 532.428 163.1C532.681 163.327 532.968 163.44 533.288 163.44C533.434 163.44 533.574 163.427 533.708 163.4C533.854 163.36 533.988 163.313 534.108 163.26L534.688 164.9C534.208 165.073 533.648 165.16 533.008 165.16Z" fill="#4E7DB5"/>
<path d="M540.5 165.32C539.06 165.32 537.874 164.827 536.94 163.84C536.007 162.853 535.54 161.607 535.54 160.1C535.54 158.607 535.994 157.367 536.9 156.38C537.807 155.38 538.967 154.88 540.38 154.88C541.834 154.88 542.987 155.353 543.84 156.3C544.707 157.233 545.14 158.547 545.14 160.24L545.12 160.44H537.42C537.447 161.4 537.767 162.173 538.38 162.76C538.994 163.347 539.727 163.64 540.58 163.64C541.754 163.64 542.674 163.053 543.34 161.88L544.98 162.68C544.54 163.507 543.927 164.153 543.14 164.62C542.367 165.087 541.487 165.32 540.5 165.32ZM537.56 158.92H543.18C543.127 158.24 542.847 157.68 542.34 157.24C541.847 156.787 541.18 156.56 540.34 156.56C539.647 156.56 539.047 156.773 538.54 157.2C538.047 157.627 537.72 158.2 537.56 158.92Z" fill="#4E7DB5"/>
<path d="M549.383 156.44C549.383 156.813 549.25 157.133 548.983 157.4C548.73 157.667 548.41 157.8 548.023 157.8C547.65 157.8 547.33 157.667 547.063 157.4C546.796 157.133 546.663 156.813 546.663 156.44C546.663 156.053 546.796 155.733 547.063 155.48C547.33 155.213 547.65 155.08 548.023 155.08C548.41 155.08 548.73 155.213 548.983 155.48C549.25 155.733 549.383 156.053 549.383 156.44ZM549.383 163.76C549.383 164.133 549.25 164.453 548.983 164.72C548.73 164.987 548.41 165.12 548.023 165.12C547.65 165.12 547.33 164.987 547.063 164.72C546.796 164.453 546.663 164.133 546.663 163.76C546.663 163.373 546.796 163.053 547.063 162.8C547.33 162.533 547.65 162.4 548.023 162.4C548.41 162.4 548.73 162.533 548.983 162.8C549.25 163.053 549.383 163.373 549.383 163.76Z" fill="#4E7DB5"/>
</g>
<path d="M433.28 302.44V307.48H436.24C436.987 307.48 437.62 307.24 438.14 306.76C438.66 306.267 438.92 305.66 438.92 304.94C438.92 304.273 438.673 303.693 438.18 303.2C437.7 302.693 437.093 302.44 436.36 302.44H433.28ZM433.28 315H431.44V300.68H436.32C437.56 300.68 438.613 301.093 439.48 301.92C440.36 302.733 440.8 303.74 440.8 304.94C440.8 305.927 440.473 306.807 439.82 307.58C439.18 308.34 438.367 308.827 437.38 309.04L437.34 309.1L441.36 314.92V315H439.18L435.32 309.2H433.28V315Z" fill="#4E7DB5"/>
<path d="M446.887 315.32C445.447 315.32 444.26 314.827 443.327 313.84C442.394 312.853 441.927 311.607 441.927 310.1C441.927 308.607 442.38 307.367 443.287 306.38C444.194 305.38 445.354 304.88 446.767 304.88C448.22 304.88 449.374 305.353 450.227 306.3C451.094 307.233 451.527 308.547 451.527 310.24L451.507 310.44H443.807C443.834 311.4 444.154 312.173 444.767 312.76C445.38 313.347 446.114 313.64 446.967 313.64C448.14 313.64 449.06 313.053 449.727 311.88L451.367 312.68C450.927 313.507 450.314 314.153 449.527 314.62C448.754 315.087 447.874 315.32 446.887 315.32ZM443.947 308.92H449.567C449.514 308.24 449.234 307.68 448.727 307.24C448.234 306.787 447.567 306.56 446.727 306.56C446.034 306.56 445.434 306.773 444.927 307.2C444.434 307.627 444.107 308.2 443.947 308.92Z" fill="#4E7DB5"/>
<path d="M457.707 313.64C458.614 313.64 459.354 313.313 459.927 312.66C460.527 312.007 460.827 311.153 460.827 310.1C460.827 309.073 460.527 308.227 459.927 307.56C459.341 306.893 458.601 306.56 457.707 306.56C456.827 306.56 456.087 306.893 455.487 307.56C454.887 308.227 454.587 309.073 454.587 310.1C454.587 311.14 454.887 311.987 455.487 312.64C456.087 313.307 456.827 313.64 457.707 313.64ZM457.407 315.32C456.127 315.32 455.027 314.813 454.107 313.8C453.201 312.773 452.747 311.54 452.747 310.1C452.747 308.66 453.201 307.427 454.107 306.4C455.027 305.387 456.127 304.88 457.407 304.88C458.127 304.88 458.781 305.033 459.367 305.34C459.967 305.647 460.427 306.053 460.747 306.56H460.827L460.747 305.2V300.68H462.587V315H460.827V313.64H460.747C460.427 314.147 459.967 314.553 459.367 314.86C458.781 315.167 458.127 315.32 457.407 315.32Z" fill="#4E7DB5"/>
<path d="M469.133 315.32C467.693 315.32 466.507 314.827 465.573 313.84C464.64 312.853 464.173 311.607 464.173 310.1C464.173 308.607 464.627 307.367 465.533 306.38C466.44 305.38 467.6 304.88 469.013 304.88C470.467 304.88 471.62 305.353 472.473 306.3C473.34 307.233 473.773 308.547 473.773 310.24L473.753 310.44H466.053C466.08 311.4 466.4 312.173 467.013 312.76C467.627 313.347 468.36 313.64 469.213 313.64C470.387 313.64 471.307 313.053 471.973 311.88L473.613 312.68C473.173 313.507 472.56 314.153 471.773 314.62C471 315.087 470.12 315.32 469.133 315.32ZM466.193 308.92H471.813C471.76 308.24 471.48 307.68 470.973 307.24C470.48 306.787 469.813 306.56 468.973 306.56C468.28 306.56 467.68 306.773 467.173 307.2C466.68 307.627 466.353 308.2 466.193 308.92Z" fill="#4E7DB5"/>
<path d="M479.954 315.32C478.514 315.32 477.327 314.827 476.394 313.84C475.46 312.853 474.994 311.607 474.994 310.1C474.994 308.607 475.447 307.367 476.354 306.38C477.26 305.38 478.42 304.88 479.834 304.88C481.287 304.88 482.44 305.353 483.294 306.3C484.16 307.233 484.594 308.547 484.594 310.24L484.574 310.44H476.874C476.9 311.4 477.22 312.173 477.834 312.76C478.447 313.347 479.18 313.64 480.034 313.64C481.207 313.64 482.127 313.053 482.794 311.88L484.434 312.68C483.994 313.507 483.38 314.153 482.594 314.62C481.82 315.087 480.94 315.32 479.954 315.32ZM477.014 308.92H482.634C482.58 308.24 482.3 307.68 481.794 307.24C481.3 306.787 480.634 306.56 479.794 306.56C479.1 306.56 478.5 306.773 477.994 307.2C477.5 307.627 477.174 308.2 477.014 308.92Z" fill="#4E7DB5"/>
<path d="M488.116 315H486.276V305.2H488.036V306.56H488.116C488.396 306.08 488.823 305.68 489.396 305.36C489.983 305.04 490.563 304.88 491.136 304.88C491.856 304.88 492.49 305.047 493.036 305.38C493.583 305.713 493.983 306.173 494.236 306.76C495.05 305.507 496.176 304.88 497.616 304.88C498.75 304.88 499.623 305.227 500.236 305.92C500.85 306.613 501.156 307.6 501.156 308.88V315H499.316V309.16C499.316 308.24 499.15 307.58 498.816 307.18C498.483 306.767 497.923 306.56 497.136 306.56C496.43 306.56 495.836 306.86 495.356 307.46C494.876 308.06 494.636 308.767 494.636 309.58V315H492.796V309.16C492.796 308.24 492.63 307.58 492.296 307.18C491.963 306.767 491.403 306.56 490.616 306.56C489.91 306.56 489.316 306.86 488.836 307.46C488.356 308.06 488.116 308.767 488.116 309.58V315Z" fill="#4E7DB5"/>
<path d="M510.082 301.82C510.082 302.18 509.955 302.487 509.702 302.74C509.449 302.993 509.142 303.12 508.782 303.12C508.422 303.12 508.115 302.993 507.862 302.74C507.609 302.487 507.482 302.18 507.482 301.82C507.482 301.46 507.609 301.153 507.862 300.9C508.115 300.647 508.422 300.52 508.782 300.52C509.142 300.52 509.449 300.647 509.702 300.9C509.955 301.153 510.082 301.46 510.082 301.82ZM509.702 305.2V315H507.862V305.2H509.702Z" fill="#4E7DB5"/>
<path d="M512.097 305.2H513.857V306.56H513.937C514.217 306.08 514.643 305.68 515.217 305.36C515.803 305.04 516.41 304.88 517.037 304.88C518.237 304.88 519.157 305.227 519.797 305.92C520.45 306.6 520.777 307.573 520.777 308.84V315H518.937V308.96C518.897 307.36 518.09 306.56 516.517 306.56C515.783 306.56 515.17 306.86 514.677 307.46C514.183 308.047 513.937 308.753 513.937 309.58V315H512.097V305.2Z" fill="#4E7DB5"/>
<path d="M525.496 306.44C525.496 306.813 525.363 307.133 525.096 307.4C524.843 307.667 524.523 307.8 524.136 307.8C523.763 307.8 523.443 307.667 523.176 307.4C522.91 307.133 522.776 306.813 522.776 306.44C522.776 306.053 522.91 305.733 523.176 305.48C523.443 305.213 523.763 305.08 524.136 305.08C524.523 305.08 524.843 305.213 525.096 305.48C525.363 305.733 525.496 306.053 525.496 306.44ZM525.496 313.76C525.496 314.133 525.363 314.453 525.096 314.72C524.843 314.987 524.523 315.12 524.136 315.12C523.763 315.12 523.443 314.987 523.176 314.72C522.91 314.453 522.776 314.133 522.776 313.76C522.776 313.373 522.91 313.053 523.176 312.8C523.443 312.533 523.763 312.4 524.136 312.4C524.523 312.4 524.843 312.533 525.096 312.8C525.363 313.053 525.496 313.373 525.496 313.76Z" fill="#4E7DB5"/>
<path d="M438.18 407.32C436.06 407.32 434.287 406.607 432.86 405.18C431.447 403.753 430.74 401.973 430.74 399.84C430.74 397.707 431.447 395.933 432.86 394.52C434.274 393.08 436.047 392.36 438.18 392.36C440.34 392.36 442.094 393.14 443.44 394.7L442.12 395.98C441.094 394.74 439.78 394.12 438.18 394.12C436.594 394.12 435.267 394.653 434.2 395.72C433.147 396.773 432.62 398.147 432.62 399.84C432.62 401.533 433.147 402.907 434.2 403.96C435.267 405.027 436.594 405.56 438.18 405.56C439.847 405.56 441.294 404.86 442.52 403.46L443.86 404.76C443.18 405.573 442.347 406.207 441.36 406.66C440.374 407.1 439.314 407.32 438.18 407.32Z" fill="#4E7DB5"/>
<path d="M453.998 407H452.238V405.64H452.158C451.878 406.12 451.444 406.52 450.858 406.84C450.284 407.16 449.684 407.32 449.058 407.32C447.858 407.32 446.931 406.98 446.278 406.3C445.638 405.607 445.318 404.627 445.318 403.36V397.2H447.158V403.24C447.198 404.84 448.004 405.64 449.578 405.64C450.311 405.64 450.924 405.347 451.418 404.76C451.911 404.16 452.158 403.447 452.158 402.62V397.2H453.998V407Z" fill="#4E7DB5"/>
<path d="M458.077 407H456.237V397.2H457.997V398.8H458.077C458.264 398.28 458.644 397.84 459.217 397.48C459.804 397.107 460.377 396.92 460.937 396.92C461.471 396.92 461.924 397 462.297 397.16L461.737 398.94C461.511 398.847 461.151 398.8 460.657 398.8C459.964 398.8 459.357 399.08 458.837 399.64C458.331 400.2 458.077 400.853 458.077 401.6V407Z" fill="#4E7DB5"/>
<path d="M465.343 407H463.503V397.2H465.263V398.8H465.343C465.53 398.28 465.91 397.84 466.483 397.48C467.07 397.107 467.643 396.92 468.203 396.92C468.736 396.92 469.19 397 469.563 397.16L469.003 398.94C468.776 398.847 468.416 398.8 467.923 398.8C467.23 398.8 466.623 399.08 466.103 399.64C465.596 400.2 465.343 400.853 465.343 401.6V407Z" fill="#4E7DB5"/>
<path d="M474.563 407.32C473.123 407.32 471.937 406.827 471.003 405.84C470.07 404.853 469.603 403.607 469.603 402.1C469.603 400.607 470.057 399.367 470.963 398.38C471.87 397.38 473.03 396.88 474.443 396.88C475.897 396.88 477.05 397.353 477.903 398.3C478.77 399.233 479.203 400.547 479.203 402.24L479.183 402.44H471.483C471.51 403.4 471.83 404.173 472.443 404.76C473.057 405.347 473.79 405.64 474.643 405.64C475.817 405.64 476.737 405.053 477.403 403.88L479.043 404.68C478.603 405.507 477.99 406.153 477.203 406.62C476.43 407.087 475.55 407.32 474.563 407.32ZM471.623 400.92H477.243C477.19 400.24 476.91 399.68 476.403 399.24C475.91 398.787 475.243 398.56 474.403 398.56C473.71 398.56 473.11 398.773 472.603 399.2C472.11 399.627 471.783 400.2 471.623 400.92Z" fill="#4E7DB5"/>
<path d="M480.886 397.2H482.646V398.56H482.726C483.006 398.08 483.433 397.68 484.006 397.36C484.593 397.04 485.199 396.88 485.826 396.88C487.026 396.88 487.946 397.227 488.586 397.92C489.239 398.6 489.566 399.573 489.566 400.84V407H487.726V400.96C487.686 399.36 486.879 398.56 485.306 398.56C484.573 398.56 483.959 398.86 483.466 399.46C482.973 400.047 482.726 400.753 482.726 401.58V407H480.886V397.2Z" fill="#4E7DB5"/>
<path d="M495.098 407.16C494.298 407.16 493.631 406.913 493.098 406.42C492.578 405.927 492.311 405.24 492.298 404.36V398.88H490.578V397.2H492.298V394.2H494.138V397.2H496.538V398.88H494.138V403.76C494.138 404.413 494.265 404.86 494.518 405.1C494.771 405.327 495.058 405.44 495.378 405.44C495.525 405.44 495.665 405.427 495.798 405.4C495.945 405.36 496.078 405.313 496.198 405.26L496.778 406.9C496.298 407.073 495.738 407.16 495.098 407.16Z" fill="#4E7DB5"/>
<path d="M507.443 407H505.603L501.643 397.2H503.643L506.523 404.8H506.563L509.483 397.2H511.443L507.443 407Z" fill="#4E7DB5"/>
<path d="M513.788 404C513.788 404.48 513.988 404.88 514.388 405.2C514.802 405.52 515.282 405.68 515.828 405.68C516.602 405.68 517.288 405.393 517.888 404.82C518.502 404.247 518.808 403.573 518.808 402.8C518.235 402.347 517.435 402.12 516.408 402.12C515.662 402.12 515.035 402.3 514.528 402.66C514.035 403.02 513.788 403.467 513.788 404ZM516.168 396.88C517.528 396.88 518.602 397.247 519.388 397.98C520.175 398.7 520.568 399.693 520.568 400.96V407H518.808V405.64H518.728C517.968 406.76 516.955 407.32 515.688 407.32C514.608 407.32 513.702 407 512.968 406.36C512.248 405.72 511.888 404.92 511.888 403.96C511.888 402.947 512.268 402.14 513.028 401.54C513.802 400.94 514.828 400.64 516.108 400.64C517.202 400.64 518.102 400.84 518.808 401.24V400.82C518.808 400.18 518.555 399.64 518.048 399.2C517.542 398.747 516.948 398.52 516.268 398.52C515.242 398.52 514.428 398.953 513.828 399.82L512.208 398.8C513.102 397.52 514.422 396.88 516.168 396.88Z" fill="#4E7DB5"/>
<path d="M524.484 392.68V407H522.644V392.68H524.484Z" fill="#4E7DB5"/>
<path d="M535.326 407H533.566V405.64H533.486C533.206 406.12 532.772 406.52 532.186 406.84C531.612 407.16 531.012 407.32 530.386 407.32C529.186 407.32 528.259 406.98 527.606 406.3C526.966 405.607 526.646 404.627 526.646 403.36V397.2H528.486V403.24C528.526 404.84 529.332 405.64 530.906 405.64C531.639 405.64 532.252 405.347 532.746 404.76C533.239 404.16 533.486 403.447 533.486 402.62V397.2H535.326V407Z" fill="#4E7DB5"/>
<path d="M541.868 407.32C540.428 407.32 539.241 406.827 538.308 405.84C537.375 404.853 536.908 403.607 536.908 402.1C536.908 400.607 537.361 399.367 538.268 398.38C539.175 397.38 540.335 396.88 541.748 396.88C543.201 396.88 544.355 397.353 545.208 398.3C546.075 399.233 546.508 400.547 546.508 402.24L546.488 402.44H538.788C538.815 403.4 539.135 404.173 539.748 404.76C540.361 405.347 541.095 405.64 541.948 405.64C543.121 405.64 544.041 405.053 544.708 403.88L546.348 404.68C545.908 405.507 545.295 406.153 544.508 406.62C543.735 407.087 542.855 407.32 541.868 407.32ZM538.928 400.92H544.548C544.495 400.24 544.215 399.68 543.708 399.24C543.215 398.787 542.548 398.56 541.708 398.56C541.015 398.56 540.415 398.773 539.908 399.2C539.415 399.627 539.088 400.2 538.928 400.92Z" fill="#4E7DB5"/>
<path d="M550.751 398.44C550.751 398.813 550.617 399.133 550.351 399.4C550.097 399.667 549.777 399.8 549.391 399.8C549.017 399.8 548.697 399.667 548.431 399.4C548.164 399.133 548.031 398.813 548.031 398.44C548.031 398.053 548.164 397.733 548.431 397.48C548.697 397.213 549.017 397.08 549.391 397.08C549.777 397.08 550.097 397.213 550.351 397.48C550.617 397.733 550.751 398.053 550.751 398.44ZM550.751 405.76C550.751 406.133 550.617 406.453 550.351 406.72C550.097 406.987 549.777 407.12 549.391 407.12C549.017 407.12 548.697 406.987 548.431 406.72C548.164 406.453 548.031 406.133 548.031 405.76C548.031 405.373 548.164 405.053 548.431 404.8C548.697 404.533 549.017 404.4 549.391 404.4C549.777 404.4 550.097 404.533 550.351 404.8C550.617 405.053 550.751 405.373 550.751 405.76Z" fill="#4E7DB5"/>
<g filter="url(#filter21_ddii_7124_11647)">
<path d="M398 530.667C398 517.412 408.745 506.667 422 506.667H707.901C716.792 506.667 724 513.874 724 522.765V522.765C724 633.904 633.904 724 522.765 724H422C408.745 724 398 713.255 398 700V530.667Z" fill="url(#paint18_linear_7124_11647)"/>
<path d="M398 530.667C398 517.412 408.745 506.667 422 506.667H707.901C716.792 506.667 724 513.874 724 522.765V522.765C724 633.904 633.904 724 522.765 724H422C408.745 724 398 713.255 398 700V530.667Z" fill="url(#paint19_linear_7124_11647)"/>
<path d="M445.22 549.42C445.22 551.42 444.627 553.013 443.44 554.2C442.107 555.613 440.354 556.32 438.18 556.32C436.1 556.32 434.34 555.6 432.9 554.16C431.46 552.72 430.74 550.947 430.74 548.84C430.74 546.733 431.46 544.96 432.9 543.52C434.34 542.08 436.1 541.36 438.18 541.36C439.234 541.36 440.227 541.547 441.16 541.92C442.094 542.293 442.86 542.82 443.46 543.5L442.14 544.82C441.7 544.287 441.127 543.873 440.42 543.58C439.727 543.273 438.98 543.12 438.18 543.12C436.62 543.12 435.3 543.66 434.22 544.74C433.154 545.833 432.62 547.2 432.62 548.84C432.62 550.48 433.154 551.847 434.22 552.94C435.3 554.02 436.62 554.56 438.18 554.56C439.607 554.56 440.794 554.16 441.74 553.36C442.687 552.56 443.234 551.46 443.38 550.06H438.18V548.34H445.12C445.187 548.713 445.22 549.073 445.22 549.42Z" fill="#4E7DB5"/>
<path d="M448.183 553C448.183 553.48 448.383 553.88 448.783 554.2C449.196 554.52 449.676 554.68 450.223 554.68C450.996 554.68 451.683 554.393 452.283 553.82C452.896 553.247 453.203 552.573 453.203 551.8C452.63 551.347 451.83 551.12 450.803 551.12C450.056 551.12 449.43 551.3 448.923 551.66C448.43 552.02 448.183 552.467 448.183 553ZM450.563 545.88C451.923 545.88 452.996 546.247 453.783 546.98C454.57 547.7 454.963 548.693 454.963 549.96V556H453.203V554.64H453.123C452.363 555.76 451.35 556.32 450.083 556.32C449.003 556.32 448.096 556 447.363 555.36C446.643 554.72 446.283 553.92 446.283 552.96C446.283 551.947 446.663 551.14 447.423 550.54C448.196 549.94 449.223 549.64 450.503 549.64C451.596 549.64 452.496 549.84 453.203 550.24V549.82C453.203 549.18 452.95 548.64 452.443 548.2C451.936 547.747 451.343 547.52 450.663 547.52C449.636 547.52 448.823 547.953 448.223 548.82L446.603 547.8C447.496 546.52 448.816 545.88 450.563 545.88Z" fill="#4E7DB5"/>
<path d="M459.418 542.82C459.418 543.18 459.292 543.487 459.038 543.74C458.785 543.993 458.478 544.12 458.118 544.12C457.758 544.12 457.452 543.993 457.198 543.74C456.945 543.487 456.818 543.18 456.818 542.82C456.818 542.46 456.945 542.153 457.198 541.9C457.452 541.647 457.758 541.52 458.118 541.52C458.478 541.52 458.785 541.647 459.038 541.9C459.292 542.153 459.418 542.46 459.418 542.82ZM459.038 546.2V556H457.198V546.2H459.038Z" fill="#4E7DB5"/>
<path d="M461.433 546.2H463.193V547.56H463.273C463.553 547.08 463.979 546.68 464.553 546.36C465.139 546.04 465.746 545.88 466.373 545.88C467.573 545.88 468.493 546.227 469.133 546.92C469.786 547.6 470.113 548.573 470.113 549.84V556H468.273V549.96C468.233 548.36 467.426 547.56 465.853 547.56C465.119 547.56 464.506 547.86 464.013 548.46C463.519 549.047 463.273 549.753 463.273 550.58V556H461.433V546.2Z" fill="#4E7DB5"/>
<path d="M476.673 556.32C475.233 556.32 474.046 555.827 473.113 554.84C472.179 553.853 471.713 552.607 471.713 551.1C471.713 549.607 472.166 548.367 473.073 547.38C473.979 546.38 475.139 545.88 476.553 545.88C478.006 545.88 479.159 546.353 480.013 547.3C480.879 548.233 481.313 549.547 481.313 551.24L481.293 551.44H473.593C473.619 552.4 473.939 553.173 474.553 553.76C475.166 554.347 475.899 554.64 476.753 554.64C477.926 554.64 478.846 554.053 479.513 552.88L481.153 553.68C480.713 554.507 480.099 555.153 479.313 555.62C478.539 556.087 477.659 556.32 476.673 556.32ZM473.733 549.92H479.353C479.299 549.24 479.019 548.68 478.513 548.24C478.019 547.787 477.353 547.56 476.513 547.56C475.819 547.56 475.219 547.773 474.713 548.2C474.219 548.627 473.893 549.2 473.733 549.92Z" fill="#4E7DB5"/>
<path d="M487.493 554.64C488.4 554.64 489.14 554.313 489.713 553.66C490.313 553.007 490.613 552.153 490.613 551.1C490.613 550.073 490.313 549.227 489.713 548.56C489.126 547.893 488.386 547.56 487.493 547.56C486.613 547.56 485.873 547.893 485.273 548.56C484.673 549.227 484.373 550.073 484.373 551.1C484.373 552.14 484.673 552.987 485.273 553.64C485.873 554.307 486.613 554.64 487.493 554.64ZM487.193 556.32C485.913 556.32 484.813 555.813 483.893 554.8C482.986 553.773 482.533 552.54 482.533 551.1C482.533 549.66 482.986 548.427 483.893 547.4C484.813 546.387 485.913 545.88 487.193 545.88C487.913 545.88 488.566 546.033 489.153 546.34C489.753 546.647 490.213 547.053 490.533 547.56H490.613L490.533 546.2V541.68H492.373V556H490.613V554.64H490.533C490.213 555.147 489.753 555.553 489.153 555.86C488.566 556.167 487.913 556.32 487.193 556.32Z" fill="#4E7DB5"/>
<path d="M497.176 547.44C497.176 547.813 497.043 548.133 496.776 548.4C496.523 548.667 496.203 548.8 495.816 548.8C495.443 548.8 495.123 548.667 494.856 548.4C494.59 548.133 494.456 547.813 494.456 547.44C494.456 547.053 494.59 546.733 494.856 546.48C495.123 546.213 495.443 546.08 495.816 546.08C496.203 546.08 496.523 546.213 496.776 546.48C497.043 546.733 497.176 547.053 497.176 547.44ZM497.176 554.76C497.176 555.133 497.043 555.453 496.776 555.72C496.523 555.987 496.203 556.12 495.816 556.12C495.443 556.12 495.123 555.987 494.856 555.72C494.59 555.453 494.456 555.133 494.456 554.76C494.456 554.373 494.59 554.053 494.856 553.8C495.123 553.533 495.443 553.4 495.816 553.4C496.203 553.4 496.523 553.533 496.776 553.8C497.043 554.053 497.176 554.373 497.176 554.76Z" fill="#4E7DB5"/>
<path d="M433.28 648H431.44V633.68H433.28V648Z" fill="#4E7DB5"/>
<path d="M435.847 638.2H437.607V639.56H437.687C437.967 639.08 438.393 638.68 438.967 638.36C439.553 638.04 440.16 637.88 440.787 637.88C441.987 637.88 442.907 638.227 443.547 638.92C444.2 639.6 444.527 640.573 444.527 641.84V648H442.687V641.96C442.647 640.36 441.84 639.56 440.267 639.56C439.533 639.56 438.92 639.86 438.427 640.46C437.933 641.047 437.687 641.753 437.687 642.58V648H435.847V638.2Z" fill="#4E7DB5"/>
<path d="M449.066 634.82C449.066 635.18 448.94 635.487 448.686 635.74C448.433 635.993 448.126 636.12 447.766 636.12C447.406 636.12 447.1 635.993 446.846 635.74C446.593 635.487 446.466 635.18 446.466 634.82C446.466 634.46 446.593 634.153 446.846 633.9C447.1 633.647 447.406 633.52 447.766 633.52C448.126 633.52 448.433 633.647 448.686 633.9C448.94 634.153 449.066 634.46 449.066 634.82ZM448.686 638.2V648H446.846V638.2H448.686Z" fill="#4E7DB5"/>
<path d="M454.863 648.16C454.063 648.16 453.397 647.913 452.863 647.42C452.343 646.927 452.077 646.24 452.063 645.36V639.88H450.343V638.2H452.063V635.2H453.903V638.2H456.303V639.88H453.903V644.76C453.903 645.413 454.03 645.86 454.283 646.1C454.537 646.327 454.823 646.44 455.143 646.44C455.29 646.44 455.43 646.427 455.563 646.4C455.71 646.36 455.843 646.313 455.963 646.26L456.543 647.9C456.063 648.073 455.503 648.16 454.863 648.16Z" fill="#4E7DB5"/>
<path d="M460.531 634.82C460.531 635.18 460.405 635.487 460.151 635.74C459.898 635.993 459.591 636.12 459.231 636.12C458.871 636.12 458.565 635.993 458.311 635.74C458.058 635.487 457.931 635.18 457.931 634.82C457.931 634.46 458.058 634.153 458.311 633.9C458.565 633.647 458.871 633.52 459.231 633.52C459.591 633.52 459.898 633.647 460.151 633.9C460.405 634.153 460.531 634.46 460.531 634.82ZM460.151 638.2V648H458.311V638.2H460.151Z" fill="#4E7DB5"/>
<path d="M463.788 645C463.788 645.48 463.988 645.88 464.388 646.2C464.801 646.52 465.281 646.68 465.828 646.68C466.601 646.68 467.288 646.393 467.888 645.82C468.501 645.247 468.808 644.573 468.808 643.8C468.235 643.347 467.435 643.12 466.408 643.12C465.661 643.12 465.035 643.3 464.528 643.66C464.035 644.02 463.788 644.467 463.788 645ZM466.168 637.88C467.528 637.88 468.601 638.247 469.388 638.98C470.175 639.7 470.568 640.693 470.568 641.96V648H468.808V646.64H468.728C467.968 647.76 466.955 648.32 465.688 648.32C464.608 648.32 463.701 648 462.968 647.36C462.248 646.72 461.888 645.92 461.888 644.96C461.888 643.947 462.268 643.14 463.028 642.54C463.801 641.94 464.828 641.64 466.108 641.64C467.201 641.64 468.101 641.84 468.808 642.24V641.82C468.808 641.18 468.555 640.64 468.048 640.2C467.541 639.747 466.948 639.52 466.268 639.52C465.241 639.52 464.428 639.953 463.828 640.82L462.208 639.8C463.101 638.52 464.421 637.88 466.168 637.88Z" fill="#4E7DB5"/>
<path d="M474.483 633.68V648H472.643V633.68H474.483Z" fill="#4E7DB5"/>
<path d="M479.285 639.44C479.285 639.813 479.152 640.133 478.885 640.4C478.632 640.667 478.312 640.8 477.925 640.8C477.552 640.8 477.232 640.667 476.965 640.4C476.699 640.133 476.565 639.813 476.565 639.44C476.565 639.053 476.699 638.733 476.965 638.48C477.232 638.213 477.552 638.08 477.925 638.08C478.312 638.08 478.632 638.213 478.885 638.48C479.152 638.733 479.285 639.053 479.285 639.44ZM479.285 646.76C479.285 647.133 479.152 647.453 478.885 647.72C478.632 647.987 478.312 648.12 477.925 648.12C477.552 648.12 477.232 647.987 476.965 647.72C476.699 647.453 476.565 647.133 476.565 646.76C476.565 646.373 476.699 646.053 476.965 645.8C477.232 645.533 477.552 645.4 477.925 645.4C478.312 645.4 478.632 645.533 478.885 645.8C479.152 646.053 479.285 646.373 479.285 646.76Z" fill="#4E7DB5"/>
</g>
<defs>
<filter id="filter0_dii_7124_11647" x="15" y="19" width="361" height="717" filterUnits="userSpaceOnUse" color-interpolation-filters="sRGB">
<feFlood flood-opacity="0" result="BackgroundImageFix"/>
<feColorMatrix in="SourceAlpha" type="matrix" values="0 0 0 0 0 0 0 0 0 0 0 0 0 0 0 0 0 0 127 0" result="hardAlpha"/>
<feOffset dx="-1" dy="1"/>
<feGaussianBlur stdDeviation="1.5"/>
<feComposite in2="hardAlpha" operator="out"/>
<feColorMatrix type="matrix" values="0 0 0 0 0.341781 0 0 0 0 0.526082 0 0 0 0 1 0 0 0 0.2 0"/>
<feBlend mode="normal" in2="BackgroundImageFix" result="effect1_dropShadow_7124_11647"/>
<feBlend mode="normal" in="SourceGraphic" in2="effect1_dropShadow_7124_11647" result="shape"/>
<feColorMatrix in="SourceAlpha" type="matrix" values="0 0 0 0 0 0 0 0 0 0 0 0 0 0 0 0 0 0 127 0" result="hardAlpha"/>
<feOffset dx="-9" dy="12"/>
<feGaussianBlur stdDeviation="12"/>
<feComposite in2="hardAlpha" operator="arithmetic" k2="-1" k3="1"/>
<feColorMatrix type="matrix" values="0 0 0 0 0.00906745 0 0 0 0 0.0218037 0 0 0 0 0.0669596 0 0 0 0.32 0"/>
<feBlend mode="normal" in2="shape" result="effect2_innerShadow_7124_11647"/>
<feColorMatrix in="SourceAlpha" type="matrix" values="0 0 0 0 0 0 0 0 0 0 0 0 0 0 0 0 0 0 127 0" result="hardAlpha"/>
<feOffset dy="-5"/>
<feGaussianBlur stdDeviation="2.5"/>
<feComposite in2="hardAlpha" operator="arithmetic" k2="-1" k3="1"/>
<feColorMatrix type="matrix" values="0 0 0 0 0.252083 0 0 0 0 0.506375 0 0 0 0 1 0 0 0 0.02 0"/>
<feBlend mode="normal" in2="effect2_innerShadow_7124_11647" result="effect3_innerShadow_7124_11647"/>
</filter>
<filter id="filter1_ddii_7124_11647" x="41" y="208" width="321" height="329" filterUnits="userSpaceOnUse" color-interpolation-filters="sRGB">
<feFlood flood-opacity="0" result="BackgroundImageFix"/>
<feColorMatrix in="SourceAlpha" type="matrix" values="0 0 0 0 0 0 0 0 0 0 0 0 0 0 0 0 0 0 127 0" result="hardAlpha"/>
<feOffset dx="4" dy="-7"/>
<feGaussianBlur stdDeviation="7.5"/>
<feComposite in2="hardAlpha" operator="out"/>
<feColorMatrix type="matrix" values="0 0 0 0 0.216655 0 0 0 0 0.435992 0 0 0 0 1 0 0 0 0.1 0"/>
<feBlend mode="normal" in2="BackgroundImageFix" result="effect1_dropShadow_7124_11647"/>
<feColorMatrix in="SourceAlpha" type="matrix" values="0 0 0 0 0 0 0 0 0 0 0 0 0 0 0 0 0 0 127 0" result="hardAlpha"/>
<feOffset dy="5"/>
<feGaussianBlur stdDeviation="7"/>
<feComposite in2="hardAlpha" operator="out"/>
<feColorMatrix type="matrix" values="0 0 0 0 0 0 0 0 0 0 0 0 0 0 0 0 0 0 0.24 0"/>
<feBlend mode="normal" in2="effect1_dropShadow_7124_11647" result="effect2_dropShadow_7124_11647"/>
<feBlend mode="normal" in="SourceGraphic" in2="effect2_dropShadow_7124_11647" result="shape"/>
<feColorMatrix in="SourceAlpha" type="matrix" values="0 0 0 0 0 0 0 0 0 0 0 0 0 0 0 0 0 0 127 0" result="hardAlpha"/>
<feOffset dx="-1" dy="1"/>
<feGaussianBlur stdDeviation="1"/>
<feComposite in2="hardAlpha" operator="arithmetic" k2="-1" k3="1"/>
<feColorMatrix type="matrix" values="0 0 0 0 0.397922 0 0 0 0 0.602628 0 0 0 0 1 0 0 0 0.4 0"/>
<feBlend mode="normal" in2="shape" result="effect3_innerShadow_7124_11647"/>
<feColorMatrix in="SourceAlpha" type="matrix" values="0 0 0 0 0 0 0 0 0 0 0 0 0 0 0 0 0 0 127 0" result="hardAlpha"/>
<feOffset/>
<feGaussianBlur stdDeviation="12.5"/>
<feComposite in2="hardAlpha" operator="arithmetic" k2="-1" k3="1"/>
<feColorMatrix type="matrix" values="0 0 0 0 0.147884 0 0 0 0 0.437603 0 0 0 0 1 0 0 0 0.1 0"/>
<feBlend mode="normal" in2="effect3_innerShadow_7124_11647" result="effect4_innerShadow_7124_11647"/>
</filter>
<filter id="filter2_dii_7124_11647" x="70" y="249" width="251" height="257" filterUnits="userSpaceOnUse" color-interpolation-filters="sRGB">
<feFlood flood-opacity="0" result="BackgroundImageFix"/>
<feColorMatrix in="SourceAlpha" type="matrix" values="0 0 0 0 0 0 0 0 0 0 0 0 0 0 0 0 0 0 127 0" result="hardAlpha"/>
<feOffset dx="-1" dy="1"/>
<feGaussianBlur stdDeviation="1.5"/>
<feComposite in2="hardAlpha" operator="out"/>
<feColorMatrix type="matrix" values="0 0 0 0 0.341781 0 0 0 0 0.526082 0 0 0 0 1 0 0 0 0.2 0"/>
<feBlend mode="normal" in2="BackgroundImageFix" result="effect1_dropShadow_7124_11647"/>
<feBlend mode="normal" in="SourceGraphic" in2="effect1_dropShadow_7124_11647" result="shape"/>
<feColorMatrix in="SourceAlpha" type="matrix" values="0 0 0 0 0 0 0 0 0 0 0 0 0 0 0 0 0 0 127 0" result="hardAlpha"/>
<feOffset dx="-9" dy="12"/>
<feGaussianBlur stdDeviation="12"/>
<feComposite in2="hardAlpha" operator="arithmetic" k2="-1" k3="1"/>
<feColorMatrix type="matrix" values="0 0 0 0 0.00906745 0 0 0 0 0.0218037 0 0 0 0 0.0669596 0 0 0 0.32 0"/>
<feBlend mode="normal" in2="shape" result="effect2_innerShadow_7124_11647"/>
<feColorMatrix in="SourceAlpha" type="matrix" values="0 0 0 0 0 0 0 0 0 0 0 0 0 0 0 0 0 0 127 0" result="hardAlpha"/>
<feOffset dy="-5"/>
<feGaussianBlur stdDeviation="2.5"/>
<feComposite in2="hardAlpha" operator="arithmetic" k2="-1" k3="1"/>
<feColorMatrix type="matrix" values="0 0 0 0 0.252083 0 0 0 0 0.506375 0 0 0 0 1 0 0 0 0.02 0"/>
<feBlend mode="normal" in2="effect2_innerShadow_7124_11647" result="effect3_innerShadow_7124_11647"/>
</filter>
<filter id="filter3_i_7124_11647" x="202.146" y="303.278" width="91.832" height="71.7222" filterUnits="userSpaceOnUse" color-interpolation-filters="sRGB">
<feFlood flood-opacity="0" result="BackgroundImageFix"/>
<feBlend mode="normal" in="SourceGraphic" in2="BackgroundImageFix" result="shape"/>
<feColorMatrix in="SourceAlpha" type="matrix" values="0 0 0 0 0 0 0 0 0 0 0 0 0 0 0 0 0 0 127 0" result="hardAlpha"/>
<feOffset/>
<feGaussianBlur stdDeviation="10"/>
<feComposite in2="hardAlpha" operator="arithmetic" k2="-1" k3="1"/>
<feColorMatrix type="matrix" values="0 0 0 0 0.135384 0 0 0 0 0.636861 0 0 0 0 1 0 0 0 1 0"/>
<feBlend mode="normal" in2="shape" result="effect1_innerShadow_7124_11647"/>
</filter>
<filter id="filter4_i_7124_11647" x="200.125" y="290.074" width="51.5547" height="80.7808" filterUnits="userSpaceOnUse" color-interpolation-filters="sRGB">
<feFlood flood-opacity="0" result="BackgroundImageFix"/>
<feBlend mode="normal" in="SourceGraphic" in2="BackgroundImageFix" result="shape"/>
<feColorMatrix in="SourceAlpha" type="matrix" values="0 0 0 0 0 0 0 0 0 0 0 0 0 0 0 0 0 0 127 0" result="hardAlpha"/>
<feOffset/>
<feGaussianBlur stdDeviation="10"/>
<feComposite in2="hardAlpha" operator="arithmetic" k2="-1" k3="1"/>
<feColorMatrix type="matrix" values="0 0 0 0 0.135384 0 0 0 0 0.636861 0 0 0 0 1 0 0 0 1 0"/>
<feBlend mode="normal" in2="shape" result="effect1_innerShadow_7124_11647"/>
</filter>
<filter id="filter5_ddii_7124_11647" x="115" y="282" width="173" height="181" filterUnits="userSpaceOnUse" color-interpolation-filters="sRGB">
<feFlood flood-opacity="0" result="BackgroundImageFix"/>
<feColorMatrix in="SourceAlpha" type="matrix" values="0 0 0 0 0 0 0 0 0 0 0 0 0 0 0 0 0 0 127 0" result="hardAlpha"/>
<feOffset dx="4" dy="-7"/>
<feGaussianBlur stdDeviation="7.5"/>
<feComposite in2="hardAlpha" operator="out"/>
<feColorMatrix type="matrix" values="0 0 0 0 0.216655 0 0 0 0 0.435992 0 0 0 0 1 0 0 0 0.1 0"/>
<feBlend mode="normal" in2="BackgroundImageFix" result="effect1_dropShadow_7124_11647"/>
<feColorMatrix in="SourceAlpha" type="matrix" values="0 0 0 0 0 0 0 0 0 0 0 0 0 0 0 0 0 0 127 0" result="hardAlpha"/>
<feOffset dy="5"/>
<feGaussianBlur stdDeviation="7"/>
<feComposite in2="hardAlpha" operator="out"/>
<feColorMatrix type="matrix" values="0 0 0 0 0 0 0 0 0 0 0 0 0 0 0 0 0 0 0.24 0"/>
<feBlend mode="normal" in2="effect1_dropShadow_7124_11647" result="effect2_dropShadow_7124_11647"/>
<feBlend mode="normal" in="SourceGraphic" in2="effect2_dropShadow_7124_11647" result="shape"/>
<feColorMatrix in="SourceAlpha" type="matrix" values="0 0 0 0 0 0 0 0 0 0 0 0 0 0 0 0 0 0 127 0" result="hardAlpha"/>
<feOffset dx="-1" dy="1"/>
<feGaussianBlur stdDeviation="1"/>
<feComposite in2="hardAlpha" operator="arithmetic" k2="-1" k3="1"/>
<feColorMatrix type="matrix" values="0 0 0 0 0.397922 0 0 0 0 0.602628 0 0 0 0 1 0 0 0 0.4 0"/>
<feBlend mode="normal" in2="shape" result="effect3_innerShadow_7124_11647"/>
<feColorMatrix in="SourceAlpha" type="matrix" values="0 0 0 0 0 0 0 0 0 0 0 0 0 0 0 0 0 0 127 0" result="hardAlpha"/>
<feOffset/>
<feGaussianBlur stdDeviation="12.5"/>
<feComposite in2="hardAlpha" operator="arithmetic" k2="-1" k3="1"/>
<feColorMatrix type="matrix" values="0 0 0 0 0.147884 0 0 0 0 0.437603 0 0 0 0 1 0 0 0 0.1 0"/>
<feBlend mode="normal" in2="effect3_innerShadow_7124_11647" result="effect4_innerShadow_7124_11647"/>
</filter>
<filter id="filter6_ii_7124_11647" x="184.312" y="349" width="30" height="50" filterUnits="userSpaceOnUse" color-interpolation-filters="sRGB">
<feFlood flood-opacity="0" result="BackgroundImageFix"/>
<feBlend mode="normal" in="SourceGraphic" in2="BackgroundImageFix" result="shape"/>
<feColorMatrix in="SourceAlpha" type="matrix" values="0 0 0 0 0 0 0 0 0 0 0 0 0 0 0 0 0 0 127 0" result="hardAlpha"/>
<feOffset/>
<feGaussianBlur stdDeviation="2"/>
<feComposite in2="hardAlpha" operator="arithmetic" k2="-1" k3="1"/>
<feColorMatrix type="matrix" values="0 0 0 0 0.301961 0 0 0 0 0.847059 0 0 0 0 0.937255 0 0 0 1 0"/>
<feBlend mode="normal" in2="shape" result="effect1_innerShadow_7124_11647"/>
<feColorMatrix in="SourceAlpha" type="matrix" values="0 0 0 0 0 0 0 0 0 0 0 0 0 0 0 0 0 0 127 0" result="hardAlpha"/>
<feOffset/>
<feGaussianBlur stdDeviation="1"/>
<feComposite in2="hardAlpha" operator="arithmetic" k2="-1" k3="1"/>
<feColorMatrix type="matrix" values="0 0 0 0 0.301961 0 0 0 0 0.847059 0 0 0 0 0.937255 0 0 0 1 0"/>
<feBlend mode="normal" in2="effect1_innerShadow_7124_11647" result="effect2_innerShadow_7124_11647"/>
</filter>
<filter id="filter7_ii_7124_11647" x="184.312" y="349" width="12.7188" height="50" filterUnits="userSpaceOnUse" color-interpolation-filters="sRGB">
<feFlood flood-opacity="0" result="BackgroundImageFix"/>
<feBlend mode="normal" in="SourceGraphic" in2="BackgroundImageFix" result="shape"/>
<feColorMatrix in="SourceAlpha" type="matrix" values="0 0 0 0 0 0 0 0 0 0 0 0 0 0 0 0 0 0 127 0" result="hardAlpha"/>
<feOffset/>
<feGaussianBlur stdDeviation="2"/>
<feComposite in2="hardAlpha" operator="arithmetic" k2="-1" k3="1"/>
<feColorMatrix type="matrix" values="0 0 0 0 0.301961 0 0 0 0 0.847059 0 0 0 0 0.937255 0 0 0 1 0"/>
<feBlend mode="normal" in2="shape" result="effect1_innerShadow_7124_11647"/>
<feColorMatrix in="SourceAlpha" type="matrix" values="0 0 0 0 0 0 0 0 0 0 0 0 0 0 0 0 0 0 127 0" result="hardAlpha"/>
<feOffset/>
<feGaussianBlur stdDeviation="1"/>
<feComposite in2="hardAlpha" operator="arithmetic" k2="-1" k3="1"/>
<feColorMatrix type="matrix" values="0 0 0 0 0.301961 0 0 0 0 0.847059 0 0 0 0 0.937255 0 0 0 1 0"/>
<feBlend mode="normal" in2="effect1_innerShadow_7124_11647" result="effect2_innerShadow_7124_11647"/>
</filter>
<filter id="filter8_ii_7124_11647" x="216.4" y="349" width="12.1816" height="50" filterUnits="userSpaceOnUse" color-interpolation-filters="sRGB">
<feFlood flood-opacity="0" result="BackgroundImageFix"/>
<feBlend mode="normal" in="SourceGraphic" in2="BackgroundImageFix" result="shape"/>
<feColorMatrix in="SourceAlpha" type="matrix" values="0 0 0 0 0 0 0 0 0 0 0 0 0 0 0 0 0 0 127 0" result="hardAlpha"/>
<feOffset/>
<feGaussianBlur stdDeviation="2"/>
<feComposite in2="hardAlpha" operator="arithmetic" k2="-1" k3="1"/>
<feColorMatrix type="matrix" values="0 0 0 0 0.301961 0 0 0 0 0.847059 0 0 0 0 0.937255 0 0 0 1 0"/>
<feBlend mode="normal" in2="shape" result="effect1_innerShadow_7124_11647"/>
<feColorMatrix in="SourceAlpha" type="matrix" values="0 0 0 0 0 0 0 0 0 0 0 0 0 0 0 0 0 0 127 0" result="hardAlpha"/>
<feOffset/>
<feGaussianBlur stdDeviation="1"/>
<feComposite in2="hardAlpha" operator="arithmetic" k2="-1" k3="1"/>
<feColorMatrix type="matrix" values="0 0 0 0 0.301961 0 0 0 0 0.847059 0 0 0 0 0.937255 0 0 0 1 0"/>
<feBlend mode="normal" in2="effect1_innerShadow_7124_11647" result="effect2_innerShadow_7124_11647"/>
</filter>
<filter id="filter9_ii_7124_11647" x="170" y="349" width="12.1816" height="50" filterUnits="userSpaceOnUse" color-interpolation-filters="sRGB">
<feFlood flood-opacity="0" result="BackgroundImageFix"/>
<feBlend mode="normal" in="SourceGraphic" in2="BackgroundImageFix" result="shape"/>
<feColorMatrix in="SourceAlpha" type="matrix" values="0 0 0 0 0 0 0 0 0 0 0 0 0 0 0 0 0 0 127 0" result="hardAlpha"/>
<feOffset/>
<feGaussianBlur stdDeviation="2"/>
<feComposite in2="hardAlpha" operator="arithmetic" k2="-1" k3="1"/>
<feColorMatrix type="matrix" values="0 0 0 0 0.301961 0 0 0 0 0.847059 0 0 0 0 0.937255 0 0 0 1 0"/>
<feBlend mode="normal" in2="shape" result="effect1_innerShadow_7124_11647"/>
<feColorMatrix in="SourceAlpha" type="matrix" values="0 0 0 0 0 0 0 0 0 0 0 0 0 0 0 0 0 0 127 0" result="hardAlpha"/>
<feOffset/>
<feGaussianBlur stdDeviation="1"/>
<feComposite in2="hardAlpha" operator="arithmetic" k2="-1" k3="1"/>
<feColorMatrix type="matrix" values="0 0 0 0 0.301961 0 0 0 0 0.847059 0 0 0 0 0.937255 0 0 0 1 0"/>
<feBlend mode="normal" in2="effect1_innerShadow_7124_11647" result="effect2_innerShadow_7124_11647"/>
</filter>
<filter id="filter10_f_7124_11647" x="146" y="325" width="106.582" height="98" filterUnits="userSpaceOnUse" color-interpolation-filters="sRGB">
<feFlood flood-opacity="0" result="BackgroundImageFix"/>
<feBlend mode="normal" in="SourceGraphic" in2="BackgroundImageFix" result="shape"/>
<feGaussianBlur stdDeviation="12" result="effect1_foregroundBlur_7124_11647"/>
</filter>
<filter id="filter11_ii_7124_11647" x="184.312" y="349" width="30" height="50" filterUnits="userSpaceOnUse" color-interpolation-filters="sRGB">
<feFlood flood-opacity="0" result="BackgroundImageFix"/>
<feBlend mode="normal" in="SourceGraphic" in2="BackgroundImageFix" result="shape"/>
<feColorMatrix in="SourceAlpha" type="matrix" values="0 0 0 0 0 0 0 0 0 0 0 0 0 0 0 0 0 0 127 0" result="hardAlpha"/>
<feOffset/>
<feGaussianBlur stdDeviation="2"/>
<feComposite in2="hardAlpha" operator="arithmetic" k2="-1" k3="1"/>
<feColorMatrix type="matrix" values="0 0 0 0 0.301961 0 0 0 0 0.847059 0 0 0 0 0.937255 0 0 0 1 0"/>
<feBlend mode="normal" in2="shape" result="effect1_innerShadow_7124_11647"/>
<feColorMatrix in="SourceAlpha" type="matrix" values="0 0 0 0 0 0 0 0 0 0 0 0 0 0 0 0 0 0 127 0" result="hardAlpha"/>
<feOffset/>
<feGaussianBlur stdDeviation="1"/>
<feComposite in2="hardAlpha" operator="arithmetic" k2="-1" k3="1"/>
<feColorMatrix type="matrix" values="0 0 0 0 0.301961 0 0 0 0 0.847059 0 0 0 0 0.937255 0 0 0 1 0"/>
<feBlend mode="normal" in2="effect1_innerShadow_7124_11647" result="effect2_innerShadow_7124_11647"/>
</filter>
<filter id="filter12_ii_7124_11647" x="184.312" y="349" width="12.7188" height="50" filterUnits="userSpaceOnUse" color-interpolation-filters="sRGB">
<feFlood flood-opacity="0" result="BackgroundImageFix"/>
<feBlend mode="normal" in="SourceGraphic" in2="BackgroundImageFix" result="shape"/>
<feColorMatrix in="SourceAlpha" type="matrix" values="0 0 0 0 0 0 0 0 0 0 0 0 0 0 0 0 0 0 127 0" result="hardAlpha"/>
<feOffset/>
<feGaussianBlur stdDeviation="2"/>
<feComposite in2="hardAlpha" operator="arithmetic" k2="-1" k3="1"/>
<feColorMatrix type="matrix" values="0 0 0 0 0.301961 0 0 0 0 0.847059 0 0 0 0 0.937255 0 0 0 1 0"/>
<feBlend mode="normal" in2="shape" result="effect1_innerShadow_7124_11647"/>
<feColorMatrix in="SourceAlpha" type="matrix" values="0 0 0 0 0 0 0 0 0 0 0 0 0 0 0 0 0 0 127 0" result="hardAlpha"/>
<feOffset/>
<feGaussianBlur stdDeviation="1"/>
<feComposite in2="hardAlpha" operator="arithmetic" k2="-1" k3="1"/>
<feColorMatrix type="matrix" values="0 0 0 0 0.301961 0 0 0 0 0.847059 0 0 0 0 0.937255 0 0 0 1 0"/>
<feBlend mode="normal" in2="effect1_innerShadow_7124_11647" result="effect2_innerShadow_7124_11647"/>
</filter>
<filter id="filter13_ii_7124_11647" x="216.4" y="349" width="12.1816" height="50" filterUnits="userSpaceOnUse" color-interpolation-filters="sRGB">
<feFlood flood-opacity="0" result="BackgroundImageFix"/>
<feBlend mode="normal" in="SourceGraphic" in2="BackgroundImageFix" result="shape"/>
<feColorMatrix in="SourceAlpha" type="matrix" values="0 0 0 0 0 0 0 0 0 0 0 0 0 0 0 0 0 0 127 0" result="hardAlpha"/>
<feOffset/>
<feGaussianBlur stdDeviation="2"/>
<feComposite in2="hardAlpha" operator="arithmetic" k2="-1" k3="1"/>
<feColorMatrix type="matrix" values="0 0 0 0 0.301961 0 0 0 0 0.847059 0 0 0 0 0.937255 0 0 0 1 0"/>
<feBlend mode="normal" in2="shape" result="effect1_innerShadow_7124_11647"/>
<feColorMatrix in="SourceAlpha" type="matrix" values="0 0 0 0 0 0 0 0 0 0 0 0 0 0 0 0 0 0 127 0" result="hardAlpha"/>
<feOffset/>
<feGaussianBlur stdDeviation="1"/>
<feComposite in2="hardAlpha" operator="arithmetic" k2="-1" k3="1"/>
<feColorMatrix type="matrix" values="0 0 0 0 0.301961 0 0 0 0 0.847059 0 0 0 0 0.937255 0 0 0 1 0"/>
<feBlend mode="normal" in2="effect1_innerShadow_7124_11647" result="effect2_innerShadow_7124_11647"/>
</filter>
<filter id="filter14_ii_7124_11647" x="170" y="349" width="12.1816" height="50" filterUnits="userSpaceOnUse" color-interpolation-filters="sRGB">
<feFlood flood-opacity="0" result="BackgroundImageFix"/>
<feBlend mode="normal" in="SourceGraphic" in2="BackgroundImageFix" result="shape"/>
<feColorMatrix in="SourceAlpha" type="matrix" values="0 0 0 0 0 0 0 0 0 0 0 0 0 0 0 0 0 0 127 0" result="hardAlpha"/>
<feOffset/>
<feGaussianBlur stdDeviation="2"/>
<feComposite in2="hardAlpha" operator="arithmetic" k2="-1" k3="1"/>
<feColorMatrix type="matrix" values="0 0 0 0 0.301961 0 0 0 0 0.847059 0 0 0 0 0.937255 0 0 0 1 0"/>
<feBlend mode="normal" in2="shape" result="effect1_innerShadow_7124_11647"/>
<feColorMatrix in="SourceAlpha" type="matrix" values="0 0 0 0 0 0 0 0 0 0 0 0 0 0 0 0 0 0 127 0" result="hardAlpha"/>
<feOffset/>
<feGaussianBlur stdDeviation="1"/>
<feComposite in2="hardAlpha" operator="arithmetic" k2="-1" k3="1"/>
<feColorMatrix type="matrix" values="0 0 0 0 0.301961 0 0 0 0 0.847059 0 0 0 0 0.937255 0 0 0 1 0"/>
<feBlend mode="normal" in2="effect1_innerShadow_7124_11647" result="effect2_innerShadow_7124_11647"/>
</filter>
<filter id="filter15_f_7124_11647" x="146" y="325" width="106.582" height="98" filterUnits="userSpaceOnUse" color-interpolation-filters="sRGB">
<feFlood flood-opacity="0" result="BackgroundImageFix"/>
<feBlend mode="normal" in="SourceGraphic" in2="BackgroundImageFix" result="shape"/>
<feGaussianBlur stdDeviation="12" result="effect1_foregroundBlur_7124_11647"/>
</filter>
<filter id="filter16_ii_7124_11647" x="184.312" y="349" width="30" height="50" filterUnits="userSpaceOnUse" color-interpolation-filters="sRGB">
<feFlood flood-opacity="0" result="BackgroundImageFix"/>
<feBlend mode="normal" in="SourceGraphic" in2="BackgroundImageFix" result="shape"/>
<feColorMatrix in="SourceAlpha" type="matrix" values="0 0 0 0 0 0 0 0 0 0 0 0 0 0 0 0 0 0 127 0" result="hardAlpha"/>
<feOffset/>
<feGaussianBlur stdDeviation="2"/>
<feComposite in2="hardAlpha" operator="arithmetic" k2="-1" k3="1"/>
<feColorMatrix type="matrix" values="0 0 0 0 0.301961 0 0 0 0 0.847059 0 0 0 0 0.937255 0 0 0 1 0"/>
<feBlend mode="normal" in2="shape" result="effect1_innerShadow_7124_11647"/>
<feColorMatrix in="SourceAlpha" type="matrix" values="0 0 0 0 0 0 0 0 0 0 0 0 0 0 0 0 0 0 127 0" result="hardAlpha"/>
<feOffset/>
<feGaussianBlur stdDeviation="1"/>
<feComposite in2="hardAlpha" operator="arithmetic" k2="-1" k3="1"/>
<feColorMatrix type="matrix" values="0 0 0 0 0.301961 0 0 0 0 0.847059 0 0 0 0 0.937255 0 0 0 1 0"/>
<feBlend mode="normal" in2="effect1_innerShadow_7124_11647" result="effect2_innerShadow_7124_11647"/>
</filter>
<filter id="filter17_ii_7124_11647" x="184.312" y="349" width="12.7188" height="50" filterUnits="userSpaceOnUse" color-interpolation-filters="sRGB">
<feFlood flood-opacity="0" result="BackgroundImageFix"/>
<feBlend mode="normal" in="SourceGraphic" in2="BackgroundImageFix" result="shape"/>
<feColorMatrix in="SourceAlpha" type="matrix" values="0 0 0 0 0 0 0 0 0 0 0 0 0 0 0 0 0 0 127 0" result="hardAlpha"/>
<feOffset/>
<feGaussianBlur stdDeviation="2"/>
<feComposite in2="hardAlpha" operator="arithmetic" k2="-1" k3="1"/>
<feColorMatrix type="matrix" values="0 0 0 0 0.301961 0 0 0 0 0.847059 0 0 0 0 0.937255 0 0 0 1 0"/>
<feBlend mode="normal" in2="shape" result="effect1_innerShadow_7124_11647"/>
<feColorMatrix in="SourceAlpha" type="matrix" values="0 0 0 0 0 0 0 0 0 0 0 0 0 0 0 0 0 0 127 0" result="hardAlpha"/>
<feOffset/>
<feGaussianBlur stdDeviation="1"/>
<feComposite in2="hardAlpha" operator="arithmetic" k2="-1" k3="1"/>
<feColorMatrix type="matrix" values="0 0 0 0 0.301961 0 0 0 0 0.847059 0 0 0 0 0.937255 0 0 0 1 0"/>
<feBlend mode="normal" in2="effect1_innerShadow_7124_11647" result="effect2_innerShadow_7124_11647"/>
</filter>
<filter id="filter18_ii_7124_11647" x="216.4" y="349" width="12.1816" height="50" filterUnits="userSpaceOnUse" color-interpolation-filters="sRGB">
<feFlood flood-opacity="0" result="BackgroundImageFix"/>
<feBlend mode="normal" in="SourceGraphic" in2="BackgroundImageFix" result="shape"/>
<feColorMatrix in="SourceAlpha" type="matrix" values="0 0 0 0 0 0 0 0 0 0 0 0 0 0 0 0 0 0 127 0" result="hardAlpha"/>
<feOffset/>
<feGaussianBlur stdDeviation="2"/>
<feComposite in2="hardAlpha" operator="arithmetic" k2="-1" k3="1"/>
<feColorMatrix type="matrix" values="0 0 0 0 0.301961 0 0 0 0 0.847059 0 0 0 0 0.937255 0 0 0 1 0"/>
<feBlend mode="normal" in2="shape" result="effect1_innerShadow_7124_11647"/>
<feColorMatrix in="SourceAlpha" type="matrix" values="0 0 0 0 0 0 0 0 0 0 0 0 0 0 0 0 0 0 127 0" result="hardAlpha"/>
<feOffset/>
<feGaussianBlur stdDeviation="1"/>
<feComposite in2="hardAlpha" operator="arithmetic" k2="-1" k3="1"/>
<feColorMatrix type="matrix" values="0 0 0 0 0.301961 0 0 0 0 0.847059 0 0 0 0 0.937255 0 0 0 1 0"/>
<feBlend mode="normal" in2="effect1_innerShadow_7124_11647" result="effect2_innerShadow_7124_11647"/>
</filter>
<filter id="filter19_ii_7124_11647" x="170" y="349" width="12.1816" height="50" filterUnits="userSpaceOnUse" color-interpolation-filters="sRGB">
<feFlood flood-opacity="0" result="BackgroundImageFix"/>
<feBlend mode="normal" in="SourceGraphic" in2="BackgroundImageFix" result="shape"/>
<feColorMatrix in="SourceAlpha" type="matrix" values="0 0 0 0 0 0 0 0 0 0 0 0 0 0 0 0 0 0 127 0" result="hardAlpha"/>
<feOffset/>
<feGaussianBlur stdDeviation="2"/>
<feComposite in2="hardAlpha" operator="arithmetic" k2="-1" k3="1"/>
<feColorMatrix type="matrix" values="0 0 0 0 0.301961 0 0 0 0 0.847059 0 0 0 0 0.937255 0 0 0 1 0"/>
<feBlend mode="normal" in2="shape" result="effect1_innerShadow_7124_11647"/>
<feColorMatrix in="SourceAlpha" type="matrix" values="0 0 0 0 0 0 0 0 0 0 0 0 0 0 0 0 0 0 127 0" result="hardAlpha"/>
<feOffset/>
<feGaussianBlur stdDeviation="1"/>
<feComposite in2="hardAlpha" operator="arithmetic" k2="-1" k3="1"/>
<feColorMatrix type="matrix" values="0 0 0 0 0.301961 0 0 0 0 0.847059 0 0 0 0 0.937255 0 0 0 1 0"/>
<feBlend mode="normal" in2="effect1_innerShadow_7124_11647" result="effect2_innerShadow_7124_11647"/>
</filter>
<filter id="filter20_ddii_7124_11647" x="384" y="2" width="359" height="258.333" filterUnits="userSpaceOnUse" color-interpolation-filters="sRGB">
<feFlood flood-opacity="0" result="BackgroundImageFix"/>
<feColorMatrix in="SourceAlpha" type="matrix" values="0 0 0 0 0 0 0 0 0 0 0 0 0 0 0 0 0 0 127 0" result="hardAlpha"/>
<feOffset dx="4" dy="-7"/>
<feGaussianBlur stdDeviation="7.5"/>
<feComposite in2="hardAlpha" operator="out"/>
<feColorMatrix type="matrix" values="0 0 0 0 0.216655 0 0 0 0 0.435992 0 0 0 0 1 0 0 0 0.1 0"/>
<feBlend mode="normal" in2="BackgroundImageFix" result="effect1_dropShadow_7124_11647"/>
<feColorMatrix in="SourceAlpha" type="matrix" values="0 0 0 0 0 0 0 0 0 0 0 0 0 0 0 0 0 0 127 0" result="hardAlpha"/>
<feOffset dy="5"/>
<feGaussianBlur stdDeviation="7"/>
<feComposite in2="hardAlpha" operator="out"/>
<feColorMatrix type="matrix" values="0 0 0 0 0 0 0 0 0 0 0 0 0 0 0 0 0 0 0.24 0"/>
<feBlend mode="normal" in2="effect1_dropShadow_7124_11647" result="effect2_dropShadow_7124_11647"/>
<feBlend mode="normal" in="SourceGraphic" in2="effect2_dropShadow_7124_11647" result="shape"/>
<feColorMatrix in="SourceAlpha" type="matrix" values="0 0 0 0 0 0 0 0 0 0 0 0 0 0 0 0 0 0 127 0" result="hardAlpha"/>
<feOffset dx="-1" dy="1"/>
<feGaussianBlur stdDeviation="1"/>
<feComposite in2="hardAlpha" operator="arithmetic" k2="-1" k3="1"/>
<feColorMatrix type="matrix" values="0 0 0 0 0.397922 0 0 0 0 0.602628 0 0 0 0 1 0 0 0 0.4 0"/>
<feBlend mode="normal" in2="shape" result="effect3_innerShadow_7124_11647"/>
<feColorMatrix in="SourceAlpha" type="matrix" values="0 0 0 0 0 0 0 0 0 0 0 0 0 0 0 0 0 0 127 0" result="hardAlpha"/>
<feOffset/>
<feGaussianBlur stdDeviation="12.5"/>
<feComposite in2="hardAlpha" operator="arithmetic" k2="-1" k3="1"/>
<feColorMatrix type="matrix" values="0 0 0 0 0.147884 0 0 0 0 0.437603 0 0 0 0 1 0 0 0 0.1 0"/>
<feBlend mode="normal" in2="effect3_innerShadow_7124_11647" result="effect4_innerShadow_7124_11647"/>
</filter>
<filter id="filter21_ddii_7124_11647" x="384" y="484.667" width="359" height="258.333" filterUnits="userSpaceOnUse" color-interpolation-filters="sRGB">
<feFlood flood-opacity="0" result="BackgroundImageFix"/>
<feColorMatrix in="SourceAlpha" type="matrix" values="0 0 0 0 0 0 0 0 0 0 0 0 0 0 0 0 0 0 127 0" result="hardAlpha"/>
<feOffset dx="4" dy="-7"/>
<feGaussianBlur stdDeviation="7.5"/>
<feComposite in2="hardAlpha" operator="out"/>
<feColorMatrix type="matrix" values="0 0 0 0 0.216655 0 0 0 0 0.435992 0 0 0 0 1 0 0 0 0.1 0"/>
<feBlend mode="normal" in2="BackgroundImageFix" result="effect1_dropShadow_7124_11647"/>
<feColorMatrix in="SourceAlpha" type="matrix" values="0 0 0 0 0 0 0 0 0 0 0 0 0 0 0 0 0 0 127 0" result="hardAlpha"/>
<feOffset dy="5"/>
<feGaussianBlur stdDeviation="7"/>
<feComposite in2="hardAlpha" operator="out"/>
<feColorMatrix type="matrix" values="0 0 0 0 0 0 0 0 0 0 0 0 0 0 0 0 0 0 0.24 0"/>
<feBlend mode="normal" in2="effect1_dropShadow_7124_11647" result="effect2_dropShadow_7124_11647"/>
<feBlend mode="normal" in="SourceGraphic" in2="effect2_dropShadow_7124_11647" result="shape"/>
<feColorMatrix in="SourceAlpha" type="matrix" values="0 0 0 0 0 0 0 0 0 0 0 0 0 0 0 0 0 0 127 0" result="hardAlpha"/>
<feOffset dx="-1" dy="1"/>
<feGaussianBlur stdDeviation="1"/>
<feComposite in2="hardAlpha" operator="arithmetic" k2="-1" k3="1"/>
<feColorMatrix type="matrix" values="0 0 0 0 0.397922 0 0 0 0 0.602628 0 0 0 0 1 0 0 0 0.4 0"/>
<feBlend mode="normal" in2="shape" result="effect3_innerShadow_7124_11647"/>
<feColorMatrix in="SourceAlpha" type="matrix" values="0 0 0 0 0 0 0 0 0 0 0 0 0 0 0 0 0 0 127 0" result="hardAlpha"/>
<feOffset/>
<feGaussianBlur stdDeviation="12.5"/>
<feComposite in2="hardAlpha" operator="arithmetic" k2="-1" k3="1"/>
<feColorMatrix type="matrix" values="0 0 0 0 0.147884 0 0 0 0 0.437603 0 0 0 0 1 0 0 0 0.1 0"/>
<feBlend mode="normal" in2="effect3_innerShadow_7124_11647" result="effect4_innerShadow_7124_11647"/>
</filter>
<linearGradient id="paint0_linear_7124_11647" x1="0" y1="374" x2="748" y2="374" gradientUnits="userSpaceOnUse">
<stop stop-color="#050D1C"/>
<stop offset="0.5" stop-color="#151A33"/>
<stop offset="1" stop-color="#003053"/>
</linearGradient>
<linearGradient id="paint1_linear_7124_11647" x1="374" y1="0" x2="374" y2="748" gradientUnits="userSpaceOnUse">
<stop stop-color="#0A1226" stop-opacity="0.05"/>
<stop offset="0.333333" stop-color="#050B1A" stop-opacity="0.05"/>
<stop offset="0.666667" stop-color="#1D3268" stop-opacity="0.05"/>
<stop offset="1" stop-color="#2D8DFF" stop-opacity="0.15"/>
</linearGradient>
<linearGradient id="paint2_linear_7124_11647" x1="374" y1="374" x2="24" y2="374" gradientUnits="userSpaceOnUse">
<stop stop-color="#072644"/>
<stop offset="1" stop-color="#0F1225"/>
</linearGradient>
<linearGradient id="paint3_linear_7124_11647" x1="199" y1="24" x2="199" y2="724" gradientUnits="userSpaceOnUse">
<stop stop-opacity="0"/>
<stop offset="0.5" stop-color="#073E7F" stop-opacity="0"/>
<stop offset="1" stop-color="#2E8EFF" stop-opacity="0.16"/>
</linearGradient>
<linearGradient id="paint4_linear_7124_11647" x1="55" y1="374" x2="343" y2="374" gradientUnits="userSpaceOnUse">
<stop stop-color="#050D1C"/>
<stop offset="0.5" stop-color="#151A33"/>
<stop offset="1" stop-color="#003053"/>
</linearGradient>
<linearGradient id="paint5_linear_7124_11647" x1="199" y1="230" x2="199" y2="518" gradientUnits="userSpaceOnUse">
<stop stop-color="#0A1226" stop-opacity="0.05"/>
<stop offset="0.333333" stop-color="#050B1A" stop-opacity="0.05"/>
<stop offset="0.666667" stop-color="#1D3268" stop-opacity="0.05"/>
<stop offset="1" stop-color="#2D8DFF" stop-opacity="0.15"/>
</linearGradient>
<linearGradient id="paint6_linear_7124_11647" x1="319" y1="374" x2="79" y2="374" gradientUnits="userSpaceOnUse">
<stop stop-color="#072644"/>
<stop offset="1" stop-color="#0F1225"/>
</linearGradient>
<linearGradient id="paint7_linear_7124_11647" x1="199" y1="254" x2="199" y2="494" gradientUnits="userSpaceOnUse">
<stop stop-opacity="0"/>
<stop offset="0.5" stop-color="#073E7F" stop-opacity="0"/>
<stop offset="1" stop-color="#2E8EFF" stop-opacity="0.16"/>
</linearGradient>
<linearGradient id="paint8_linear_7124_11647" x1="129" y1="374" x2="269" y2="374" gradientUnits="userSpaceOnUse">
<stop stop-color="#050D1C"/>
<stop offset="0.5" stop-color="#151A33"/>
<stop offset="1" stop-color="#003053"/>
</linearGradient>
<linearGradient id="paint9_linear_7124_11647" x1="199" y1="304" x2="199" y2="444" gradientUnits="userSpaceOnUse">
<stop stop-color="#0A1226" stop-opacity="0.05"/>
<stop offset="0.333333" stop-color="#050B1A" stop-opacity="0.05"/>
<stop offset="0.666667" stop-color="#1D3268" stop-opacity="0.05"/>
<stop offset="1" stop-color="#2D8DFF" stop-opacity="0.15"/>
</linearGradient>
<linearGradient id="paint10_linear_7124_11647" x1="190.671" y1="339" x2="190.671" y2="399" gradientUnits="userSpaceOnUse">
<stop stop-color="#2D35B0"/>
<stop offset="1" stop-color="#50DCF2"/>
</linearGradient>
<linearGradient id="paint11_linear_7124_11647" x1="222.491" y1="339" x2="222.491" y2="399" gradientUnits="userSpaceOnUse">
<stop stop-color="#2D35B0"/>
<stop offset="1" stop-color="#50DCF2"/>
</linearGradient>
<linearGradient id="paint12_linear_7124_11647" x1="190.671" y1="339" x2="190.671" y2="399" gradientUnits="userSpaceOnUse">
<stop stop-color="#2D35B0"/>
<stop offset="1" stop-color="#50DCF2"/>
</linearGradient>
<linearGradient id="paint13_linear_7124_11647" x1="222.491" y1="339" x2="222.491" y2="399" gradientUnits="userSpaceOnUse">
<stop stop-color="#2D35B0"/>
<stop offset="1" stop-color="#50DCF2"/>
</linearGradient>
<linearGradient id="paint14_linear_7124_11647" x1="190.671" y1="339" x2="190.671" y2="399" gradientUnits="userSpaceOnUse">
<stop stop-color="#2D35B0"/>
<stop offset="1" stop-color="#50DCF2"/>
</linearGradient>
<linearGradient id="paint15_linear_7124_11647" x1="222.491" y1="339" x2="222.491" y2="399" gradientUnits="userSpaceOnUse">
<stop stop-color="#2D35B0"/>
<stop offset="1" stop-color="#50DCF2"/>
</linearGradient>
<linearGradient id="paint16_linear_7124_11647" x1="398" y1="132.667" x2="724" y2="132.667" gradientUnits="userSpaceOnUse">
<stop stop-color="#050D1C"/>
<stop offset="0.5" stop-color="#151A33"/>
<stop offset="1" stop-color="#003053"/>
</linearGradient>
<linearGradient id="paint17_linear_7124_11647" x1="561" y1="24" x2="561" y2="241.333" gradientUnits="userSpaceOnUse">
<stop stop-color="#0A1226" stop-opacity="0.05"/>
<stop offset="0.333333" stop-color="#050B1A" stop-opacity="0.05"/>
<stop offset="0.666667" stop-color="#1D3268" stop-opacity="0.05"/>
<stop offset="1" stop-color="#2D8DFF" stop-opacity="0.15"/>
</linearGradient>
<linearGradient id="paint18_linear_7124_11647" x1="398" y1="615.333" x2="724" y2="615.333" gradientUnits="userSpaceOnUse">
<stop stop-color="#050D1C"/>
<stop offset="0.5" stop-color="#151A33"/>
<stop offset="1" stop-color="#003053"/>
</linearGradient>
<linearGradient id="paint19_linear_7124_11647" x1="561" y1="506.667" x2="561" y2="724" gradientUnits="userSpaceOnUse">
<stop stop-color="#0A1226" stop-opacity="0.05"/>
<stop offset="0.333333" stop-color="#050B1A" stop-opacity="0.05"/>
<stop offset="0.666667" stop-color="#1D3268" stop-opacity="0.05"/>
<stop offset="1" stop-color="#2D8DFF" stop-opacity="0.15"/>
</linearGradient>
</defs>
</svg>
